<?xml version="1.0" encoding="UTF-8" standalone="no"?>

<svg
   width="32"
   height="32"
   viewBox="0 0 8.4666665 8.4666669"
   version="1.1"
   id="svg1699"
   xmlns="http://www.w3.org/2000/svg"
   xmlns:svg="http://www.w3.org/2000/svg">
    <path
       id="path711330"
       style="display:inline;fill:#000000;fill-opacity:1;stroke-width:0.529166;stroke-linecap:square;stroke-linejoin:round;stroke-dashoffset:2.4"
       d="M 3.370547,0.91631674 C 2.9539195,1.3682467 2.8630257,1.9614967 2.8630257,2.5936867 l -1e-4,2.33198 h 0.031001 c 1.0347435,0 2.5665078,-0.66992 2.7050137,-1.18662 0,0.81496 -1.1448481,1.5525 -2.735715,1.5525 l -1.0111425,1.2e-4 2.3374983,2.33742 1.4140594,-2.6264 v -1.27563 c 0,-7e-5 0,-1.3e-4 10e-5,-1.8e-4 v -1.2e-4 c 0,-5.1e-4 -10e-5,-9.5e-4 -10e-5,-0.002 v -0.0531 c 0,0.006 -0.001,0.0119 -0.001,0.0178 -0.055002,-0.95896 -2.2315938,-1.6201 -2.2315938,-2.77338996 z m 2.5580075,4.37534996 -1.6953712,2.38128 2.3814,-2.38128 z" />

</svg>
