<?xml version="1.0" encoding="UTF-8" standalone="no"?>
<!-- Created with Inkscape (http://www.inkscape.org/) -->

<svg
   width="135.46666mm"
   height="135.46666mm"
   viewBox="0 0 135.46666 135.46666"
   version="1.1"
   id="svg531"
   sodipodi:docname="logo-normal_label.svg"
   inkscape:version="1.2.2 (b0a8486541, 2022-12-01)"
   xmlns:inkscape="http://www.inkscape.org/namespaces/inkscape"
   xmlns:sodipodi="http://sodipodi.sourceforge.net/DTD/sodipodi-0.dtd"
   xmlns:xlink="http://www.w3.org/1999/xlink"
   xmlns="http://www.w3.org/2000/svg"
   xmlns:svg="http://www.w3.org/2000/svg">
  <sodipodi:namedview
     id="namedview29"
     pagecolor="#ffffff"
     bordercolor="#666666"
     borderopacity="1.0"
     inkscape:showpageshadow="2"
     inkscape:pageopacity="0.0"
     inkscape:pagecheckerboard="0"
     inkscape:deskcolor="#d1d1d1"
     inkscape:document-units="mm"
     showgrid="false"
     inkscape:zoom="1.5585938"
     inkscape:cx="255.99999"
     inkscape:cy="255.99999"
     inkscape:window-width="1920"
     inkscape:window-height="1011"
     inkscape:window-x="0"
     inkscape:window-y="32"
     inkscape:window-maximized="1"
     inkscape:current-layer="svg531" />
  <defs
     id="defs528">
    <linearGradient
       xlink:href="#linearGradient10371"
       id="linearGradient3883"
       gradientUnits="userSpaceOnUse"
       gradientTransform="matrix(0.79999999,0,0,1.4222222,26.800758,391.06347)"
       x1="102.43981"
       y1="-208.81937"
       x2="67.399628"
       y2="-273.07489" />
    <linearGradient
       id="linearGradient10371">
      <stop
         style="stop-color:#333949;stop-opacity:1;"
         offset="0"
         id="stop10367" />
      <stop
         style="stop-color:#1c2342;stop-opacity:1"
         offset="1"
         id="stop10369" />
    </linearGradient>
    <linearGradient
       xlink:href="#linearGradient152960"
       id="linearGradient3877"
       gradientUnits="userSpaceOnUse"
       gradientTransform="matrix(3.7346677,0,0,3.7346677,217.65679,596.03988)"
       x1="-34.86631"
       y1="-137.02408"
       x2="-25.178986"
       y2="-134.34932" />
    <linearGradient
       id="linearGradient152960">
      <stop
         style="stop-color:#e83a87;stop-opacity:1;"
         offset="0"
         id="stop152956" />
      <stop
         style="stop-color:#b4225e;stop-opacity:1"
         offset="1"
         id="stop152958" />
    </linearGradient>
    <linearGradient
       xlink:href="#linearGradient172997"
       id="linearGradient3879"
       gradientUnits="userSpaceOnUse"
       gradientTransform="matrix(0.98813085,0,0,0.98813085,217.65679,596.03988)"
       x1="-125.67532"
       y1="-477.58463"
       x2="-133.19344"
       y2="-469.38541" />
    <linearGradient
       id="linearGradient172997">
      <stop
         style="stop-color:#ff716c;stop-opacity:1;"
         offset="0"
         id="stop172993" />
      <stop
         style="stop-color:#ff525b;stop-opacity:1"
         offset="1"
         id="stop172995" />
    </linearGradient>
    <linearGradient
       xlink:href="#linearGradient173766"
       id="linearGradient3881"
       gradientUnits="userSpaceOnUse"
       gradientTransform="matrix(4.8584901,0,0,4.8584901,13.667233,762.33343)"
       x1="20.536613"
       y1="-133.07904"
       x2="21.439457"
       y2="-134.75349" />
    <linearGradient
       id="linearGradient173766">
      <stop
         style="stop-color:#ffa386;stop-opacity:1;"
         offset="0"
         id="stop173762" />
      <stop
         style="stop-color:#ffb58a;stop-opacity:1"
         offset="1"
         id="stop173764" />
    </linearGradient>
    <linearGradient
       xlink:href="#linearGradient152960"
       id="linearGradient10312"
       x1="1212.4473"
       y1="47.776226"
       x2="1225.3805"
       y2="62.169918"
       gradientUnits="userSpaceOnUse"
       gradientTransform="translate(-1098.4718,28.966558)" />
  </defs>
  <g
     id="layer1"
     transform="translate(-26.800501,-26.056145)">
    <rect
       style="display:inline;fill:url(#linearGradient3883);fill-opacity:1;stroke:none;stroke-width:0.529167;stroke-linecap:square;stroke-linejoin:round;stroke-dashoffset:2.4"
       id="rect3867"
       width="135.46666"
       height="135.46666"
       x="26.800501"
       y="26.056145" />
    <path
       id="path3869"
       style="display:inline;fill:url(#linearGradient3877);fill-opacity:1;stroke-width:0.529168;stroke-linecap:square;stroke-linejoin:round;stroke-dashoffset:2.4"
       d="m 82.323094,45.967324 c 0,16.535143 31.607526,25.922428 31.607526,39.783075 V 107.90224 H 75.137661 l 4.93e-4,-38.190538 c 0,-8.949009 1.28866,-17.347098 7.18494,-23.744378 z" />
    <path
       id="path3871"
       style="display:inline;fill:url(#linearGradient3879);fill-opacity:1;stroke-width:0.529168;stroke-linecap:square;stroke-linejoin:round;stroke-dashoffset:2.4"
       d="m 113.92996,84.975509 c 0,10.62338 -24.563448,22.925811 -38.791806,22.925811 l -14.312516,0.002 33.708502,33.7084 33.70834,-33.70845 -14.31252,-0.002 z" />
    <path
       id="path3873"
       style="display:inline;fill:url(#linearGradient3881);fill-opacity:1;stroke-width:0.529168;stroke-linecap:square;stroke-linejoin:round;stroke-dashoffset:2.4"
       d="m 94.53414,141.61162 33.70834,-33.70841 h -14.31252 z" />
    <rect
       style="display:inline;fill:url(#linearGradient10312);fill-opacity:1;stroke:#19002e;stroke-width:0;stroke-linecap:round;paint-order:markers fill stroke"
       id="rect8096"
       width="47.738266"
       height="28.124186"
       x="92.039635"
       y="53.16996"
       rx="0"
       ry="0" />
    <path
       d="m 100.64616,69.647982 v 5.726675 H 97.357791 V 59.089425 h 5.547719 q 2.41594,0 3.84761,1.498778 1.44285,1.498778 1.44285,3.892349 0,2.393571 -1.42048,3.780501 -1.42049,1.386929 -3.93709,1.386929 z m 0,-2.740304 h 2.25935 q 0.93953,0 1.45404,-0.61517 0.5145,-0.61517 0.5145,-1.789586 0,-1.219155 -0.52569,-1.93499 -0.52569,-0.727019 -1.4093,-0.738204 h -2.2929 z"
       style="font-weight:bold;font-size:22.9067px;line-height:120%;font-family:'Roboto Condensed';-inkscape-font-specification:'Roboto Condensed,  Bold';letter-spacing:-0.0383241;fill:#ffffff;stroke-width:0.264583"
       id="path312" />
    <path
       d="m 115.28244,69.424283 h -1.633 v 5.950374 h -3.28837 V 59.089425 h 5.24573 q 2.47186,0 3.81405,1.286264 1.35338,1.27508 1.35338,3.635097 0,3.243624 -2.36002,4.541074 l 2.85215,6.666208 v 0.156589 h -3.53443 z m -1.633,-2.740303 h 1.86788 q 0.98427,0 1.47641,-0.648725 0.49213,-0.65991 0.49213,-1.756031 0,-2.449496 -1.91262,-2.449496 h -1.9238 z"
       style="font-weight:bold;font-size:22.9067px;line-height:120%;font-family:'Roboto Condensed';-inkscape-font-specification:'Roboto Condensed,  Bold';letter-spacing:-0.0383241;fill:#ffffff;stroke-width:0.264583"
       id="path314" />
    <path
       d="m 134.45979,68.697264 q 0,3.277179 -1.5547,5.089135 -1.54352,1.811956 -4.29501,1.811956 -2.7403,0 -4.30619,-1.789586 -1.56589,-1.800771 -1.58826,-5.033211 v -2.785043 q 0,-3.355473 1.55471,-5.234539 1.5547,-1.89025 4.31737,-1.89025 2.71794,0 4.28382,1.856696 1.56589,1.84551 1.58826,5.189799 z m -3.29955,-2.729118 q 0,-2.203428 -0.62635,-3.27718 -0.62636,-1.073751 -1.94618,-1.073751 -1.30863,0 -1.93499,1.040197 -0.62635,1.029011 -0.64872,3.14296 v 2.896892 q 0,2.136318 0.63754,3.154145 0.63754,1.006642 1.96854,1.006642 1.28627,0 1.91262,-0.984272 0.62636,-0.995457 0.63754,-3.075851 z"
       style="font-weight:bold;font-size:22.9067px;line-height:120%;font-family:'Roboto Condensed';-inkscape-font-specification:'Roboto Condensed,  Bold';letter-spacing:-0.0383241;fill:#ffffff;stroke-width:0.264583"
       id="path316" />
  </g>
</svg>
