<?xml version="1.0" encoding="UTF-8" standalone="no"?>
<!-- Created with Inkscape (http://www.inkscape.org/) -->

<svg
   width="186.27213mm"
   height="157.29369mm"
   viewBox="0 0 186.27213 157.29369"
   version="1.1"
   id="svg1"
   xmlns="http://www.w3.org/2000/svg"
   xmlns:svg="http://www.w3.org/2000/svg">
  <defs
     id="defs1" />
  <g
     id="layer1"
     transform="translate(-10.663232,-40.57605)">
    <path
       id="path83"
       style="display:inline;fill:#542996;fill-opacity:1;stroke:none;stroke-width:0.15875;stroke-linecap:square;stroke-linejoin:bevel;stroke-miterlimit:4;stroke-dasharray:none;stroke-opacity:1;paint-order:markers fill stroke"
       d="m 27.152292,40.57605 c -2.39896,0.002 -4.3434,1.94621 -4.34517,4.34517 -0.003,2.4021 1.94311,4.35198 4.34517,4.35375 2.40358,4.4e-4 4.35292,-1.95012 4.3503,-4.35375 -0.002,-2.40049 -1.94978,-4.34557 -4.3503,-4.34517 z m -7.62589,14.3704 c -4.89431,-0.002 -8.8628,3.96543 -8.86317,8.85977 3.7e-4,4.89433 3.96886,8.8616 8.86317,8.85976 4.8928,-3.4e-4 8.85942,-3.96696 8.8598,-8.85976 -3.8e-4,-4.89278 -3.967,-8.8594 -8.8598,-8.85977 z m 35.42712,1.01315 c -14.20614,2e-4 -25.72336,11.51412 -25.7236,25.72019 0.003,3.71378 0.81317,7.38268 2.37021,10.75427 -8.84177,5.58908 -14.20828,15.31818 -14.21635,25.77837 -0.002,16.85849 13.66735,30.52557 30.52574,30.52574 4.7915,-0.007 9.51216,-1.14158 13.7834,-3.31321 0.47565,4.37552 1.81162,8.46366 3.81805,12.1182 8.97989,-1.38248 18.69212,-2.10117 28.51656,-2.10839 8.603338,4e-5 17.092998,0.57826 25.114408,1.63778 a 22.90887,22.90887 0 0 0 -0.26196,3.39193 22.90887,22.90887 0 0 0 22.90839,22.90842 22.90887,22.90887 0 0 0 22.91016,-22.90842 22.90887,22.90887 0 0 0 -5.51747,-14.90092 c 3.24248,-3.49614 5.62113,-7.78708 6.82323,-12.55802 a 28.920554,28.920554 0 0 0 10.45818,-22.21191 28.920554,28.920554 0 0 0 -28.92049,-28.92046 28.920554,28.920554 0 0 0 -21.28773,9.41084 c -2.63772,-2.3367 -5.81086,-4.05593 -9.3133,-4.91336 0.1616,-1.16348 0.24427,-2.33881 0.24801,-3.51346 -6.4e-4,-14.37757 -11.65742,-26.02934 -26.035058,-26.02995 -6.57634,6.1e-4 -12.90504,2.49064 -17.72126,6.9687 -4.84481,-5.00623 -11.51266,-7.83512 -18.47939,-7.83634 z" />
    <rect
       style="display:inline;fill:#c84d97;fill-opacity:1;stroke:none;stroke-width:0.538261;stroke-linecap:round;stroke-linejoin:round;stroke-dasharray:none;paint-order:markers fill stroke"
       id="rect83"
       width="10.628819"
       height="14.5823"
       x="193.13316"
       y="111.51582"
       rx="0.24131964"
       ry="0.25524577"
       transform="matrix(0.96649648,0.25667985,0,1,0,0)" />
    <ellipse
       style="display:inline;fill:#a651a6;fill-opacity:1;stroke:none;stroke-width:0.269896;stroke-linecap:round;stroke-linejoin:round;stroke-dasharray:none;paint-order:markers fill stroke"
       id="ellipse83"
       cx="178.47945"
       cy="125.46606"
       rx="42.235981"
       ry="20.160131"
       transform="matrix(0.99337913,0.11488214,-0.38507156,0.92288672,0,0)" />
    <path
       style="display:inline;fill:#ed6279;fill-opacity:1;stroke:none;stroke-width:0.264584px;stroke-linecap:butt;stroke-linejoin:miter;stroke-opacity:1"
       d="m 134.04637,61.26848 c 3.0853,7.73748 -0.25006,12.53938 -4.20096,17.62084 -3.94886,5.08155 -4.91645,7.5756 -3.80018,13.92744 1.11568,6.35163 6.08687,10.15205 14.62143,9.17004 8.53453,-0.98243 14.19366,-7.35046 12.92219,-15.91329 -1.27127,-8.56283 -3.69649,-12.51124 -19.54299,-24.8052 z"
       id="path84" />
    <path
       id="path85"
       style="display:inline;fill:#d74d86;fill-opacity:1;stroke:none;stroke-width:0.264584px;stroke-linecap:butt;stroke-linejoin:miter;stroke-opacity:1"
       d="m 134.04783,61.27097 c 3.08469,7.73768 -0.25278,12.53567 -4.20232,17.61729 -3.94896,5.08163 -4.91437,7.57898 -3.79811,13.93088 0.0204,0.10921 0.049,0.20855 0.0629,0.31708 6.45268,4.74325 13.44118,0.72199 11.48674,-6.8297 -1.96564,-7.59187 5.94106,-12.32028 -2.80909,-24.45723 -0.24631,-0.1929 -0.48521,-0.38076 -0.73996,-0.57781 z" />
    <path
       style="display:inline;fill:#333949;fill-opacity:1;stroke:none;stroke-width:0.264582px;stroke-linecap:butt;stroke-linejoin:miter;stroke-opacity:1"
       d="m 140.5647,117.52837 -2.59356,2.50031 -2.87175,-1.56327 0.38297,-11.49031 c 0.66168,-0.74618 0.95103,-1.84326 1.38275,-3.02566 0.53563,-1.4676 0.78919,-1.24997 0.96858,-1.64223 0.68828,-1.50693 -0.003,-3.4562 0.28918,-4.00809 0.70159,-1.3141 1.58794,-4.07545 1.58794,-4.07545 0,0 0.25822,-1.84837 0.21909,-2.0975 -0.0418,-0.2487 -1.85115,-0.14561 -2.48741,-1.73681 -0.63647,-1.59141 -1.05197,-2.69978 -0.3956,-3.49312 0.65606,-0.79337 2.3086,-0.61755 2.98327,0.15888 0.74221,0.85424 1.35319,3.85027 0.9317,3.97155 0.69948,3.22908 -0.80374,4.46748 -0.56716,6.54909 -0.003,1.90467 -0.11125,3.7876 0.049,5.68938 l -0.90261,2.30959 c 0.74764,1.35648 0.81534,2.71471 0.9353,4.21793 z"
       id="path86" />
    <path
       id="path87"
       style="display:inline;fill:#6e3e95;fill-opacity:1;stroke-width:0.264584;stroke-linecap:round;stroke-linejoin:round;paint-order:markers fill stroke"
       d="m 48.517342,143.25891 4.90982,-0.34447 c 0.79065,-0.0561 1.30369,0.58183 1.52956,1.35904 1.02719,3.53493 1.28609,6.83813 1.50703,10.12967 0.049,0.80858 -0.53427,1.50414 -1.32427,1.55966 l -9.42217,0.66239 c -0.79051,0.0561 -1.47264,-0.55107 -1.52945,-1.35921 l -0.48803,-6.95002 c -0.049,-0.72741 4.10712,-5.00641 4.81796,-5.05642 z" />
    <path
       id="path88"
       style="display:inline;fill:#6e3e95;fill-opacity:1;stroke:none;stroke-width:0.15875;stroke-linecap:square;stroke-linejoin:bevel;paint-order:markers fill stroke"
       d="m 125.62554,117.06833 a 42.696687,19.165123 2.3303864 0 0 -2.8332,0.0939 l 5.1417,38.24577 a 42.696687,19.165123 2.3303864 0 0 6.07514,0.0629 l -5.15249,-38.31453 a 42.696687,19.165123 2.3303864 0 0 -3.23115,-0.0867 z m 9.34977,0.47052 5.05478,37.5981 a 42.696687,19.165123 2.3303864 0 0 5.97026,-0.74901 l -4.85219,-36.07474 a 42.696687,19.165123 2.3303864 0 0 -4.39991,-0.62248 42.696687,19.165123 2.3303864 0 0 -1.77294,-0.15208 z m -18.19661,0.0272 a 42.696687,19.165123 2.3303864 0 0 -5.95576,0.82141 l 4.79793,35.68398 a 42.696687,19.165123 2.3303864 0 0 5.60116,0.83215 42.696687,19.165123 2.3303864 0 0 0.58257,0.049 z m 30.60746,2.0263 4.51565,33.58893 a 42.696687,19.165123 2.3303864 0 0 5.82917,-1.78744 l -4.02357,-29.9236 a 42.696687,19.165123 2.3303864 0 0 -6.32125,-1.87789 z m -42.45747,0.0905 a 42.696687,19.165123 2.3303864 0 0 -5.796578,1.99371 l 3.889698,28.94661 a 42.696687,19.165123 2.3303864 0 0 6.33935,2.02994 z m 55.21568,4.53372 3.28545,24.4491 a 42.696687,19.165123 2.3303864 0 0 5.47456,-4.40352 l -2.09862,-15.60944 a 42.696687,19.165123 2.3303864 0 0 -6.66139,-4.43614 z" />
    <path
       id="path89"
       style="display:inline;fill:#6e3e95;fill-opacity:1;stroke-width:0.264584;stroke-linecap:round;stroke-linejoin:round;paint-order:markers fill stroke"
       d="m 142.4195,157.32236 c 1.74545,22.39365 -17.00108,40.54726 -41.87133,40.54726 -24.870238,0 -46.446438,-18.15367 -48.191888,-40.54726 -1.74535,-22.39361 28.48812,-40.54729 41.87136,-40.54729 13.383198,0 46.446508,18.15361 48.191858,40.54729 z" />
    <path
       id="path90"
       style="display:inline;fill:#a651a6;fill-opacity:1;stroke:none;stroke-width:0.15875;stroke-linecap:square;stroke-linejoin:bevel;paint-order:markers fill stroke"
       d="m 80.523032,120.54556 c -3.50627,1.63988 -7.12948,3.77059 -10.56908,6.30672 l 56.785988,4.95708 c -3.83061,-3.20567 -8.022,-6.0054 -12.18652,-8.29318 z m -18.06994,12.87758 c -2.0101,2.10917 -3.82135,4.37205 -5.34063,6.76264 l 82.479818,7.20049 c -1.30335,-2.6699 -2.98869,-5.2338 -4.96072,-7.66358 z m -8.73464,13.69535 c -0.78772,2.29503 -1.25728,4.67252 -1.38217,7.10646 l 90.132578,7.86985 c 0.082,-1.56605 0.0748,-3.15715 -0.049,-4.77257 -0.0629,-0.8375 -0.18644,-1.66812 -0.33613,-2.49303 z m -0.79963,14.38653 c 0.48943,2.55304 1.24711,5.03079 2.22528,7.42118 l 83.558078,7.29456 c 1.12753,-2.21811 2.02994,-4.55661 2.67032,-6.99426 z m 6.28869,15.00886 c 1.90647,2.82127 4.16095,5.43793 6.69752,7.80828 l 61.164228,5.34069 c 2.67372,-1.92586 5.06475,-4.14553 7.12085,-6.60706 z m 18.74653,16.09071 c 6.81061,3.34641 14.52417,5.26466 22.592868,5.26466 4.9614,0 9.67556,-0.73166 14.0355,-2.06607 z" />
    <path
       id="path91"
       style="display:inline;fill:#6e3e95;fill-opacity:1;stroke-width:2.06375;stroke-linecap:round;stroke-linejoin:round;paint-order:markers fill stroke"
       d="m 94.229312,116.77524 c -6.1322,0 -15.80139,3.81825 -24.31156,10.10232 0.59517,4.58709 1.31873,9.23403 2.43877,14.07172 0.87985,3.8007 3.17549,6.51609 7.04123,7.04124 13.24913,1.7988 27.424758,1.61253 38.119078,-1.79464 3.71717,-1.18431 7.04134,-3.14008 7.04134,-7.04134 0,-3.00947 0.0833,-5.98921 0.17724,-8.96619 -10.60494,-8.23486 -23.35937,-13.41311 -30.506138,-13.41311 z" />
    <path
       id="path92"
       style="display:inline;fill:#d74d86;fill-opacity:1;stroke-width:2.06375;stroke-linecap:round;stroke-linejoin:round;paint-order:markers fill stroke"
       d="m 70.699862,98.90367 c 14.25374,0 28.50744,0 42.761208,0 3.90123,0 6.68694,3.15678 7.04185,7.04189 0.94865,10.38401 0,20.10893 0,30.16338 0,3.90123 -3.32471,5.85757 -7.04185,7.04188 -10.69435,3.40718 -24.868578,3.59463 -38.117708,1.79584 -3.86574,-0.52515 -6.162,-3.24119 -7.04188,-7.04189 -2.58053,-11.14622 -3.09568,-21.30613 -4.6435,-31.95921 -0.56084,-3.86071 3.14069,-7.04189 7.04188,-7.04189 z" />
    <path
       id="path93"
       style="display:inline;fill:#a651a6;fill-opacity:1;stroke:none;stroke-width:2.06377;stroke-linecap:round;stroke-linejoin:round;paint-order:markers fill stroke"
       d="m 89.767922,73.7967 a 29.608917,24.804074 10.213518 0 0 -27.58615,24.97007 29.608917,24.804074 10.213518 0 0 3.41929,10.37738 H 119.10537 A 29.608917,24.804074 10.213518 0 0 121.00854,98.76677 29.608917,24.804074 10.213518 0 0 89.767922,73.7967 Z" />
    <path
       id="path94"
       style="display:inline;fill:#6e3e95;fill-opacity:1;stroke:none;stroke-width:0.15875;stroke-linecap:square;stroke-linejoin:bevel;paint-order:markers fill stroke"
       d="m 104.9142,77.24858 -34.801098,3.38316 a 29.608917,24.804074 10.213518 0 0 -4.97521,5.78208 l 46.803118,-4.54824 a 29.608917,24.804074 10.213518 0 0 -7.02681,-4.617 z m 11.53528,9.48361 -53.620048,5.20683 a 29.608917,24.804074 10.213518 0 0 -0.64065,5.36233 l 57.082748,-5.54326 a 29.608917,24.804074 10.213518 0 0 -2.82229,-5.0259 z m 4.28046,10.18203 -57.893298,5.62651 a 29.608917,24.804074 10.213518 0 0 1.96475,5.11265 l 56.178238,-5.46001 a 29.608917,24.804074 10.213518 0 0 0.0272,-3.4266 29.608917,24.804074 10.213518 0 0 -0.27863,-1.85255 z" />
    <path
       id="path95"
       style="display:inline;fill:#ed6279;fill-opacity:1;stroke-width:2.06375;stroke-linecap:round;stroke-linejoin:round;paint-order:markers fill stroke"
       d="m 102.41032,100.40941 c -7.077638,1.15233 -7.798068,3.75681 -10.851328,3.86724 -4.21725,0.15276 -4.49479,-3.62001 -17.28838,-3.15732 -2.65041,0.0959 -5.03107,0.12179 -7.24751,0.12451 -2.21269,1.05687 -3.73915,3.009 -3.36505,5.22472 0.61615,3.64835 1.07526,7.23213 1.55945,10.82635 0.0905,0.0629 0.17997,0.13167 0.27183,0.19256 4.88866,3.29566 15.94996,5.84754 23.56976,0.75354 2.85488,-2.27911 4.17193,-2.32596 4.17193,-2.32596 0,0 1.32002,-0.049 4.79429,2.00211 8.837648,4.41491 18.848478,1.28382 22.889538,-2.25424 0.0136,-3.02083 -0.0813,-6.0717 -0.4124,-9.19483 -0.35501,-3.34319 -3.14001,-6.05916 -7.04124,-6.05916 z m 8.98071,4.61761 c 1.23857,-0.0419 2.58264,-6.1e-4 4.03442,0.14017 0.73751,5.95954 -8.7591,10.42878 -15.786758,4.69861 -0.44602,-0.36477 3.082238,-4.55198 11.752338,-4.83864 z m -37.449708,1.40745 c 7.51107,0.20923 11.53358,3.58939 11.22045,3.95434 -5.3162,6.17666 -15.99303,2.43574 -16.96637,-3.51536 2.09451,-0.36553 4.01258,-0.48736 5.74592,-0.43905 z" />
    <rect
       style="display:inline;fill:#ffffff;fill-opacity:1;stroke:none;stroke-width:0.530198;stroke-linecap:round;stroke-linejoin:round;stroke-dasharray:none;paint-order:markers fill stroke"
       id="rect95"
       width="48.171616"
       height="10.019801"
       x="68.897339"
       y="110.90663"
       rx="0.25331002"
       ry="0.25524577"
       transform="matrix(0.99611176,-0.08809857,0,1,0,0)" />
    <path
       class="st0"
       d="m 121.81151,96.2008 c -1.77168,0.19596 -7.77715,1.04965 -15.64306,1.3802 -11.083988,0.46565 -11.311418,4.44839 -14.649938,4.58869 -3.81162,0.16024 -4.06144,-3.80236 -15.62459,-3.31644 -7.86601,0.33035 -14.0194,-0.0136 -15.82044,-0.0561 -1.29742,-0.035 2.04603,12.67754 7.88156,17.25014 4.41849,3.46141 14.41762,6.14046 21.30454,0.79024 2.58032,-2.39382 3.76933,-2.4438 3.76933,-2.4438 0,0 1.19509,-0.049 4.3352,2.10322 8.129158,4.71913 17.368228,1.23163 20.888278,-2.56339 4.65109,-5.01327 4.83705,-17.8713 3.55936,-17.73089 z m -36.074748,12.38962 c -4.80483,6.48727 -14.45582,2.55733 -15.33554,-3.69305 10.09616,-2.04814 15.68395,3.22135 15.33554,3.69305 z m 13.08454,-0.54964 c -0.46075,-0.4383 3.771778,-6.11992 14.269078,-4.93717 0.66657,6.25926 -7.91732,10.9556 -14.269078,4.93717 z"
       id="path96"
       style="display:inline;fill:#333949;fill-opacity:1;stroke-width:0.413417" />
    <path
       style="color:#000000;display:inline;fill:#333949;fill-opacity:1;stroke-width:1;stroke-linecap:round;-inkscape-stroke:none"
       d="m 109.19041,123.04026 a 0.92629243,0.92629243 0 0 0 -0.6974,0.0701 c -14.647328,7.59592 -23.150648,5.47344 -31.111958,1.80516 a 0.92629243,0.92629243 0 0 0 -1.23078,0.45163 0.92629243,0.92629243 0 0 0 0.45163,1.23078 c 8.19003,3.77375 17.69483,5.95572 32.739318,-1.84619 a 0.92629243,0.92629243 0 0 0 0.39631,-1.24446 0.92629243,0.92629243 0 0 0 -0.54685,-0.46493 z"
       id="path97" />
    <ellipse
       style="display:inline;fill:#ed6279;fill-opacity:1;stroke:none;stroke-width:0.265195;stroke-linecap:round;stroke-linejoin:round;stroke-dasharray:none;paint-order:markers fill stroke"
       id="ellipse97"
       cx="134.27185"
       cy="127.8223"
       rx="5.3488708"
       ry="9.0385513"
       transform="matrix(0.99695031,-0.07803901,-0.01781973,0.99984122,0,0)" />
    <path
       id="path98"
       style="display:inline;fill:#d74d86;fill-opacity:1;stroke:none;stroke-width:0.264584;stroke-linecap:round;stroke-linejoin:round;stroke-dasharray:none;paint-order:markers fill stroke"
       d="m 142.58222,104.57274 c -6.79078,0.53216 -12.07687,3.74742 -11.80681,7.18137 0.13098,1.6376 1.5349,3.1084 3.90623,4.093 -1.6143,4.31888 -1.20686,8.37157 -0.84549,12.98686 1.39864,8.20874 9.11901,6.05188 15.15547,5.87653 7.40696,-0.57975 12.87789,-7.86689 12.22006,-16.27615 -0.65889,-8.40929 -7.19682,-14.75623 -14.60385,-14.17661 -0.52304,0.049 -1.04244,0.13098 -1.55568,0.24869 -0.81593,-0.0204 -1.64349,-4.1e-4 -2.47007,0.0629 z" />
    <path
       id="path99"
       style="display:inline;fill:#d74d86;fill-opacity:1;stroke-width:0.264584;stroke-linecap:round;stroke-linejoin:round;paint-order:markers fill stroke"
       d="m 164.42786,164.59988 h 10.95196 c 1.76341,0 2.80279,1.49434 3.18284,3.25537 1.72806,8.00652 1.78821,15.37875 1.76504,22.71934 -0.007,1.80342 -1.41942,3.2553 -3.18277,3.2553 h -21.01712 c -1.76335,0 -3.18284,-1.45188 -3.18284,-3.2553 v -15.50276 c 0,-1.62277 9.89744,-10.47195 11.48289,-10.47195 z" />
    <path
       id="path100"
       style="display:inline;fill:#a651a6;stroke-width:0.264584;stroke-linecap:round;stroke-linejoin:round;paint-order:markers fill stroke"
       d="m 164.98352,168.64794 h 10.56929 c 1.70167,0 2.70485,1.40997 3.0716,3.07153 1.66764,7.55461 1.72561,14.51073 1.70336,21.43684 -0.007,1.70163 -1.36986,3.07159 -3.07159,3.07159 h -20.28254 c -1.70173,0 -3.07159,-1.36996 -3.07159,-3.07159 v -14.62749 c 0,-1.53126 9.55151,-9.88088 11.08147,-9.88088 z" />
    <path
       style="color:#000000;display:inline;fill:#d74d86;fill-opacity:1;stroke-width:1;stroke-linecap:round;-inkscape-stroke:none"
       d="m 182.71697,156.45966 c -3.61865,-1.38293 -6.94322,-0.79872 -9.06614,1.18206 -2.12291,1.98064 -3.02692,5.00412 -3.00521,8.18584 a 1.7034057,1.7034057 0 0 0 1.71006,1.69755 1.7034057,1.7034057 0 0 0 1.69749,-1.72276 c -0.0204,-2.49238 0.75193,-4.57746 1.92389,-5.67097 1.17206,-1.09347 2.75938,-1.55027 5.53277,-0.49082 a 1.7034057,1.7034057 0 0 0 2.18787,-0.98076 1.7034057,1.7034057 0 0 0 -0.98073,-2.20055 z"
       id="path101" />
    <path
       id="path102"
       style="display:inline;fill:#a651a6;fill-opacity:1;stroke-width:0.264584;stroke-linecap:round;stroke-linejoin:round;paint-order:markers fill stroke"
       d="m 19.465742,170.2406 5.32402,-0.37392 c 0.8573,-0.0629 1.41361,0.63088 1.65853,1.47376 1.11385,3.83312 1.39462,7.41502 1.63417,10.98424 0.0561,0.87683 -0.57904,1.63107 -1.43593,1.69129 l -10.2171,0.71805 c -0.85727,0.0629 -1.59692,-0.59727 -1.6585,-1.47383 l -0.52933,-7.53634 c -0.0561,-0.78885 4.45363,-5.42885 5.22441,-5.48304 z" />
    <path
       id="path103"
       style="display:inline;fill:#c84d97;fill-opacity:1;stroke-width:0.264584;stroke-linecap:round;stroke-linejoin:round;paint-order:markers fill stroke"
       d="m 36.821962,163.10186 -8.90053,0.87526 c -1.43317,0.14085 -2.15843,1.43845 -2.32653,2.89996 -0.76448,6.64496 -0.22419,12.6411 0.38162,18.60482 0.14833,1.46522 1.41368,2.53216 2.84668,2.39121 l 17.08048,-1.67962 c 1.43303,-0.14085 2.47057,-1.43433 2.32646,-2.89996 l -1.23898,-12.59895 c -0.12962,-1.31879 -8.88045,-7.71945 -10.16893,-7.59272 z" />
    <path
       style="color:#000000;display:inline;fill:#a651a6;fill-opacity:1;stroke-width:0.999998;stroke-linecap:round;-inkscape-stroke:none"
       d="m 21.307982,157.94798 c 2.83038,-1.41303 5.57891,-1.2036 7.46248,0.2361 1.88358,1.43994 2.85985,3.82496 3.09653,6.41243 a 1.3910189,1.3910189 0 0 1 -1.25411,1.51625 1.3910189,1.3910189 0 0 1 -1.51717,-1.26439 c -0.18542,-2.02691 -0.97699,-3.66002 -2.01677,-4.45503 -1.03999,-0.795 -2.36641,-1.03937 -4.53562,0.0422 a 1.3910189,1.3910189 0 0 1 -1.85646,-0.62248 1.3910189,1.3910189 0 0 1 0.62105,-1.86684 z"
       id="path104" />
    <path
       id="path105"
       style="display:inline;fill:#c84d97;fill-opacity:1;stroke-width:0.264584;stroke-linecap:round;stroke-linejoin:round;paint-order:markers fill stroke"
       d="m 132.42438,137.19707 c 2.21708,4.09586 3.67002,8.4232 4.01636,12.90296 1.97352,25.5012 -19.2004,46.17349 -47.288018,46.17349 -0.45442,0 -0.90415,-0.0204 -1.35697,-0.035 4.08933,1.05227 8.36616,1.62825 12.750958,1.62825 24.87021,0 43.61667,-18.15337 41.87132,-40.54702 -0.57135,-7.32705 -4.50354,-14.19332 -9.99379,-20.12516 z" />
    <ellipse
       style="display:inline;fill:#d74d86;fill-opacity:1;stroke:none;stroke-width:0.534403;stroke-linecap:round;stroke-linejoin:round;stroke-dasharray:none;paint-order:markers fill stroke"
       id="ellipse105"
       cx="11.984036"
       cy="113.4593"
       rx="11.019271"
       ry="5.7297277"
       transform="matrix(0.89066029,-0.45466938,0.62079758,0.7839709,0,0)" />
    <path
       id="path106"
       style="display:inline;fill:#ed6279;fill-opacity:1;stroke-width:2.06375;stroke-linecap:round;stroke-linejoin:round;paint-order:markers fill stroke"
       d="m 120.36452,137.41416 c -1.14412,0.55736 -2.41706,1.01549 -3.75225,1.38581 -12.2847,3.40721 -28.566058,3.59708 -43.785378,1.79832 -1.62416,-0.19188 -3.00348,-0.68342 -4.15387,-1.40755 1.07143,3.11857 3.2551,5.29309 6.66861,5.75677 13.24913,1.79879 27.424748,1.60889 38.119068,-1.79832 3.27646,-1.04384 6.24521,-2.68828 6.90382,-5.73503 z" />
    <path
       id="path107"
       style="display:inline;fill:#ed6279;fill-opacity:1;stroke:none;stroke-width:0.264584;stroke-linecap:round;stroke-linejoin:round;stroke-dasharray:none;paint-order:markers fill stroke"
       d="m 161.23716,118.89918 c -1.07415,6.66449 -6.12519,12.11643 -12.59542,12.94637 -5.20614,0.4222 -11.61026,2.25686 -14.50226,-1.70425 1.97693,6.65605 9.16283,4.73522 14.85326,4.56998 7.26979,-0.56924 12.66866,-7.60125 12.24442,-15.8121 z" />
    <path
       id="path108"
       style="display:inline;fill:#a651a6;fill-opacity:1;stroke-width:0.264584;stroke-linecap:round;stroke-linejoin:round;paint-order:markers fill stroke"
       d="m 51.530832,162.62359 c 0.3956,2.68675 1.03972,5.43752 2.00108,8.17043 5.47304,15.55729 15.70161,25.91633 22.84699,23.13756 0.11567,-0.0419 0.22555,-0.10274 0.33476,-0.16024 -0.79364,1.03887 -1.74681,1.8088 -2.86229,2.24257 -6.3269,2.46047 -15.34864,-6.62084 -20.15088,-20.28401 -1.57096,-4.4705 -2.17943,-8.99588 -2.17235,-13.1126 z" />
    <path
       style="display:inline;fill:#a651a6;fill-opacity:1;stroke:none;stroke-width:0.158751;stroke-linecap:square;stroke-linejoin:bevel;stroke-miterlimit:4;stroke-dasharray:none;stroke-opacity:1;paint-order:markers fill stroke"
       id="path109"
       d="m 147.31475,87.95634 c 0.19801,-2.05324 -0.0136,-4.15955 -0.34381,-6.22068 -0.42153,-1.94431 -1.33758,-3.6722 -2.68284,-4.98702 -0.26944,-0.26536 -0.56155,-0.49446 -0.84273,-0.74142 -0.30517,-0.22862 -0.60779,-0.46166 -0.91748,-0.6829 -1.30338,-0.94109 -0.61827,-0.39808 -1.9276,-1.3671 -0.9893,-0.73173 -1.94247,-1.51418 -2.88761,-2.3246 -1.47474,-1.34709 -2.94813,-2.75703 -4.15513,-4.44393 -0.23746,-0.3317 -0.45023,-0.68549 -0.67569,-1.02788 -1.0768,-1.8254 -1.7877,-3.88741 -2.13373,-6.01754 -0.0629,-0.38879 -0.0993,-0.78034 -0.14765,-1.17053 -0.22114,-1.86929 0.0204,-3.6245 0.26332,-5.42493 -0.30823,-0.0833 -0.22692,0.0272 -0.231,-0.34477 0,0 -0.0561,0.0796 -0.0561,0.0796 v 0 c -0.51532,1.16148 -0.21841,0.50885 -0.89918,1.95087 -0.0629,0.26672 -0.14765,0.52896 -0.198,0.80113 -0.2919,1.54979 -0.2242,3.21417 -0.0905,4.81183 0.0561,0.38975 0.0993,0.78113 0.17078,1.16866 0.38723,2.14316 1.12675,4.22008 2.22957,6.04953 0.22964,0.34674 0.44741,0.70491 0.69179,1.03995 1.22377,1.69109 2.71818,3.09718 4.19979,4.4588 0.82209,0.69655 1.08388,0.9332 1.92883,1.58817 1.2499,0.96518 2.55042,1.83 3.80383,2.78813 0.28305,0.22726 0.57277,0.44336 0.84746,0.68471 1.36431,1.21846 2.27638,2.69161 2.76799,4.58798 0.0799,0.39002 0.17861,0.77595 0.24087,1.16821 0.2555,1.64952 0.20991,3.3173 0.0932,4.94861 0,0 0.95755,-1.37595 0.95755,-1.37595 z" />
    <path
       id="path110"
       style="display:inline;fill:#6e3e95;fill-opacity:1;stroke-width:0.413417"
       class="st0"
       d="m 55.182892,102.6533 c -1.06666,-0.0272 1.68142,10.42464 6.47914,14.18396 2.03789,1.59644 5.51944,2.98668 9.18324,3.1265 a 31.870526,21.355469 7.7917094 0 1 -15.16561,-17.16172 31.870526,21.355469 7.7917094 0 1 -0.0136,-0.13098 c -0.1371,-0.003 -0.3844,-0.0136 -0.48731,-0.0136 z" />
    <ellipse
       style="display:inline;fill:#ed6279;fill-opacity:1;stroke:none;stroke-width:0.540826;stroke-linecap:round;stroke-linejoin:round;stroke-dasharray:none;paint-order:markers fill stroke"
       id="ellipse110"
       cx="-194.77757"
       cy="-17.726902"
       rx="5.5488887"
       ry="3.6201479"
       transform="matrix(-0.74992904,-0.66151828,-0.41659967,0.90909005,0,0)" />
  </g>
</svg>
