<?xml version="1.0" encoding="UTF-8" standalone="no"?>
<!-- Created with Inkscape (http://www.inkscape.org/) -->

<svg
   width="186.27213mm"
   height="157.29369mm"
   viewBox="0 0 186.27213 157.29369"
   version="1.1"
   id="svg1"
   xmlns="http://www.w3.org/2000/svg"
   xmlns:svg="http://www.w3.org/2000/svg">
  <defs
     id="defs1" />
  <g
     id="layer1"
     transform="translate(-10.663232,-40.57605)">
    <g
       id="g11"
       transform="matrix(3.3117091,0,0,3.3117091,-1449.6292,-55.459364)"
       style="display:inline;stroke-width:0.30196">
      <path
         id="path38367"
         style="display:inline;opacity:1;fill:#ffffff;fill-opacity:1;stroke:none;stroke-width:0.0479358;stroke-linecap:square;stroke-linejoin:bevel;stroke-miterlimit:4;stroke-dasharray:none;stroke-opacity:1;paint-order:markers fill stroke"
         d="m 445.9273,28.998747 c -0.72439,5.33e-4 -1.31153,0.587676 -1.31206,1.312064 -7.9e-4,0.725324 0.58674,1.314116 1.31206,1.314649 0.72579,1.3e-4 1.31441,-0.588856 1.31362,-1.314649 -5.3e-4,-0.724857 -0.58876,-1.312193 -1.31362,-1.312064 z m -2.3027,4.33927 c -1.47789,-5.55e-4 -2.67621,1.197397 -2.67632,2.675289 1.1e-4,1.477891 1.19843,2.675844 2.67632,2.675289 1.47742,-1.08e-4 2.67518,-1.197867 2.67529,-2.675289 -1.1e-4,-1.477423 -1.19787,-2.675181 -2.67529,-2.675289 z m 10.69754,0.305924 c -4.28968,6.9e-5 -7.76741,3.476799 -7.76748,7.766451 10e-4,1.121408 0.24555,2.229269 0.71571,3.247347 -2.66985,1.687683 -4.29032,4.625468 -4.29276,7.784021 -4.6e-4,5.090577 4.12699,9.21748 9.21753,9.217526 1.44684,-0.0018 2.87228,-0.34471 4.16202,-1.000456 0.14363,1.32123 0.54704,2.555686 1.1529,3.659208 2.71156,-0.417458 5.64426,-0.634467 8.61084,-0.636654 2.59786,1.8e-5 5.16138,0.17461 7.58352,0.494544 a 6.9175439,6.9175439 0 0 0 -0.0791,1.024227 6.9175439,6.9175439 0 0 0 6.9174,6.917407 6.9175439,6.9175439 0 0 0 6.91793,-6.917407 6.9175439,6.9175439 0 0 0 -1.66605,-4.499467 c 0.9791,-1.055697 1.69736,-2.351384 2.06034,-3.792017 a 8.7328272,8.7328272 0 0 0 3.15794,-6.707084 8.7328272,8.7328272 0 0 0 -8.7328,-8.7328 8.7328272,8.7328272 0 0 0 -6.42803,2.841687 c -0.79648,-0.705589 -1.75464,-1.224719 -2.81223,-1.483631 0.0488,-0.351328 0.0738,-0.706227 0.0749,-1.060917 -2e-4,-4.341444 -3.52007,-7.859801 -7.86153,-7.859985 -1.98579,1.84e-4 -3.8968,0.752075 -5.3511,2.104264 -1.46293,-1.511683 -3.47635,-2.365895 -5.58002,-2.366264 z" />
      <g
         id="g2"
         transform="matrix(2.1142868,0,0,2.1142868,-474.27686,-52.777398)"
         style="stroke-width:0.142818">
        <rect
           style="display:inline;fill:#c84d97;fill-opacity:1;stroke:none;stroke-width:0.0768735;stroke-linecap:round;stroke-linejoin:round;stroke-dasharray:none;paint-order:markers fill stroke"
           id="rect38-3"
           width="1.5179917"
           height="2.0826216"
           x="473.88943"
           y="-65.748482"
           rx="0.034464866"
           ry="0.036453772"
           transform="matrix(0.96649648,0.25667985,0,1,0,0)" />
        <ellipse
           style="display:inline;fill:#ed6279;fill-opacity:1;stroke:none;stroke-width:0.0385461;stroke-linecap:round;stroke-linejoin:round;stroke-dasharray:none;paint-order:markers fill stroke"
           id="path26"
           cx="452.9061"
           cy="0.34403589"
           rx="6.0320778"
           ry="2.8792391"
           transform="matrix(0.99337913,0.11488214,-0.38507156,0.92288672,0,0)" />
        <path
           style="display:inline;fill:#ffb58a;fill-opacity:1;stroke:none;stroke-width:0.0377874px;stroke-linecap:butt;stroke-linejoin:miter;stroke-opacity:1"
           d="m 450.49791,41.633142 c 0.44064,1.105057 -0.0357,1.790859 -0.59997,2.516581 -0.56397,0.72574 -0.70216,1.08194 -0.54274,1.9891 0.15934,0.90713 0.86932,1.4499 2.08821,1.30965 1.21889,-0.14031 2.02712,-1.04978 1.84553,-2.27271 -0.18156,-1.222931 -0.52793,-1.786842 -2.7911,-3.542641 z"
           id="path29" />
        <path
           id="path30"
           style="display:inline;fill:#f0716c;fill-opacity:1;stroke:none;stroke-width:0.0377874px;stroke-linecap:butt;stroke-linejoin:miter;stroke-opacity:1"
           d="m 450.49812,41.633501 c 0.44055,1.105081 -0.0361,1.790324 -0.60017,2.516072 -0.56398,0.72575 -0.70186,1.08242 -0.54244,1.98959 0.003,0.0156 0.007,0.0298 0.009,0.0453 0.92156,0.67742 1.91965,0.10311 1.64052,-0.97541 -0.28073,-1.08426 0.84849,-1.759563 -0.40119,-3.492944 -0.0352,-0.02755 -0.0693,-0.05438 -0.10568,-0.08252 z" />
        <path
           style="display:inline;fill:#333949;fill-opacity:1;stroke:none;stroke-width:0.0377871px;stroke-linecap:butt;stroke-linejoin:miter;stroke-opacity:1"
           d="m 451.42885,49.668093 -0.37041,0.35709 -0.41014,-0.22326 0.0547,-1.64103 c 0.0945,-0.10657 0.13582,-0.26325 0.19748,-0.43212 0.0765,-0.2096 0.11271,-0.17852 0.13833,-0.23454 0.0983,-0.21522 -6.5e-4,-0.49361 0.0413,-0.57243 0.1002,-0.18768 0.22679,-0.58205 0.22679,-0.58205 0,0 0.0369,-0.26398 0.0313,-0.29956 -0.006,-0.0355 -0.26438,-0.0208 -0.35525,-0.24805 -0.0909,-0.22728 -0.15024,-0.38558 -0.0565,-0.49888 0.0937,-0.11331 0.32971,-0.0882 0.42607,0.0227 0.106,0.122 0.19326,0.54989 0.13306,0.56721 0.0999,0.46117 -0.11479,0.63804 -0.081,0.93533 -6.5e-4,0.27202 -0.0159,0.54094 0.007,0.81255 l -0.12891,0.32985 c 0.10678,0.19373 0.11645,0.38771 0.13358,0.6024 z"
           id="path27" />
        <path
           id="path38"
           style="display:inline;fill:#6e3e95;fill-opacity:1;stroke-width:0.0377874;stroke-linecap:round;stroke-linejoin:round;paint-order:markers fill stroke"
           d="m 438.28279,53.342893 0.70121,-0.0492 c 0.11292,-0.008 0.18619,0.0831 0.21845,0.1941 0.1467,0.50485 0.18368,0.97661 0.21523,1.4467 0.007,0.11548 -0.0763,0.21482 -0.18913,0.22275 l -1.34566,0.0946 c -0.1129,0.008 -0.21032,-0.0787 -0.21843,-0.19412 l -0.0697,-0.99259 c -0.007,-0.10389 0.58657,-0.71501 0.68809,-0.72215 z" />
        <path
           id="path39"
           style="display:inline;fill:#d74d86;fill-opacity:1;stroke:none;stroke-width:0.0226724;stroke-linecap:square;stroke-linejoin:bevel;paint-order:markers fill stroke"
           d="m 449.29526,49.602393 a 6.0978751,2.7371334 2.3303864 0 0 -0.40463,0.0134 l 0.73433,5.4622 a 6.0978751,2.7371334 2.3303864 0 0 0.86764,0.009 l -0.73587,-5.47202 a 6.0978751,2.7371334 2.3303864 0 0 -0.46147,-0.0124 z m 1.33532,0.0672 0.72192,5.3697 a 6.0978751,2.7371334 2.3303864 0 0 0.85266,-0.10697 l -0.69298,-5.15214 a 6.0978751,2.7371334 2.3303864 0 0 -0.62839,-0.0889 6.0978751,2.7371334 2.3303864 0 0 -0.25321,-0.0217 z m -2.59881,0.004 a 6.0978751,2.7371334 2.3303864 0 0 -0.85059,0.11731 l 0.68523,5.09633 a 6.0978751,2.7371334 2.3303864 0 0 0.79995,0.11885 6.0978751,2.7371334 2.3303864 0 0 0.0832,0.007 z m 4.37131,0.28939 0.64492,4.79712 a 6.0978751,2.7371334 2.3303864 0 0 0.83251,-0.25528 l -0.57464,-4.27364 a 6.0978751,2.7371334 2.3303864 0 0 -0.90279,-0.2682 z m -6.06371,0.0129 a 6.0978751,2.7371334 2.3303864 0 0 -0.82786,0.28474 l 0.55552,4.13411 a 6.0978751,2.7371334 2.3303864 0 0 0.90538,0.28991 z m 7.88582,0.6475 0.46922,3.49178 a 6.0978751,2.7371334 2.3303864 0 0 0.78187,-0.6289 l -0.29972,-2.22932 a 6.0978751,2.7371334 2.3303864 0 0 -0.95137,-0.63356 z" />
        <path
           id="path23"
           style="display:inline;fill:#d74d86;stroke-width:0.0377874;stroke-linecap:round;stroke-linejoin:round;paint-order:markers fill stroke"
           d="m 451.69375,55.35141 c 0.24928,3.19823 -2.42807,5.790897 -5.98,5.790897 -3.55193,0 -6.63341,-2.592677 -6.88269,-5.790897 -0.24927,-3.198221 4.06863,-5.790898 5.98,-5.790898 1.91137,0 6.63342,2.592667 6.88269,5.790898 z" />
        <path
           id="path41"
           style="display:inline;fill:#f0716c;fill-opacity:1;stroke:none;stroke-width:0.0226724;stroke-linecap:square;stroke-linejoin:bevel;paint-order:markers fill stroke"
           d="m 442.85379,50.099003 c -0.50076,0.23421 -1.01822,0.53851 -1.50946,0.90072 l 8.11009,0.70796 c -0.54708,-0.45783 -1.14569,-0.85768 -1.74046,-1.18442 z m -2.58072,1.83916 c -0.28708,0.30123 -0.54576,0.62441 -0.76274,0.96583 l 11.77964,1.02836 c -0.18614,-0.38131 -0.42684,-0.74748 -0.70848,-1.0945 z m -1.24747,1.95595 c -0.1125,0.32777 -0.17956,0.66732 -0.1974,1.01493 l 12.8726,1.12396 c 0.0117,-0.22366 0.0107,-0.4509 -0.007,-0.68161 -0.009,-0.11961 -0.0266,-0.23824 -0.048,-0.35605 z m -0.1142,2.05466 c 0.0699,0.36462 0.17811,0.71849 0.31781,1.05988 l 11.93364,1.0418 c 0.16103,-0.31679 0.28991,-0.65077 0.38137,-0.99891 z m 0.89814,2.14354 c 0.27228,0.40293 0.59426,0.77664 0.95653,1.11517 l 8.73538,0.76275 c 0.38186,-0.27505 0.72334,-0.59206 1.01699,-0.94361 z m 2.67735,2.29805 c 0.97268,0.47793 2.07432,0.75189 3.22668,0.75189 0.70858,0 1.38185,-0.10449 2.00453,-0.29507 z" />
        <path
           id="path4-6"
           style="display:inline;fill:#6e3e95;fill-opacity:1;stroke-width:0.294741;stroke-linecap:round;stroke-linejoin:round;paint-order:markers fill stroke"
           d="m 444.8113,49.560533 c -0.87579,0 -2.25673,0.54532 -3.47214,1.4428 0.085,0.65512 0.18834,1.31879 0.3483,2.0097 0.12566,0.54281 0.45352,0.93062 1.00562,1.00562 1.89222,0.2569 3.91676,0.2303 5.44411,-0.25631 0.53088,-0.16914 1.00563,-0.44846 1.00563,-1.00563 0,-0.42981 0.0119,-0.85537 0.0253,-1.28054 -1.51458,-1.17609 -3.33615,-1.91564 -4.35684,-1.91564 z" />
        <path
           id="rect21"
           style="display:inline;fill:#ffd3b4;fill-opacity:1;stroke-width:0.294741;stroke-linecap:round;stroke-linejoin:round;paint-order:markers fill stroke"
           d="m 441.45086,47.008143 c 2.0357,0 4.07139,0 6.10709,0 0.55717,0 0.95502,0.45085 1.00571,1.00571 0.13548,1.48303 0,2.87193 0,4.30789 0,0.55717 -0.47483,0.83657 -1.00571,1.00571 -1.52735,0.48661 -3.55169,0.51338 -5.44391,0.25648 -0.5521,-0.075 -0.88005,-0.4629 -1.00571,-1.00571 -0.36855,-1.59189 -0.44212,-3.04291 -0.66318,-4.56437 -0.0801,-0.55138 0.44855,-1.00571 1.00571,-1.00571 z" />
        <path
           id="path21"
           style="display:inline;fill:#a651a6;fill-opacity:1;stroke:none;stroke-width:0.294744;stroke-linecap:round;stroke-linejoin:round;paint-order:markers fill stroke"
           d="m 444.17413,43.422404 a 4.2287,3.5424796 10.213518 0 0 -3.93981,3.56619 4.2287,3.5424796 10.213518 0 0 0.48834,1.482077 h 7.6414 a 4.2287,3.5424796 10.213518 0 0 0.27181,-1.482077 4.2287,3.5424796 10.213518 0 0 -4.46174,-3.56619 z" />
        <path
           id="path40"
           style="display:inline;fill:#ed6279;fill-opacity:1;stroke:none;stroke-width:0.0226724;stroke-linecap:square;stroke-linejoin:bevel;paint-order:markers fill stroke"
           d="m 446.3373,43.915397 -4.97024,0.483176 a 4.2287,3.5424796 10.213518 0 0 -0.71055,0.82579 l 6.68435,-0.64957 a 4.2287,3.5424796 10.213518 0 0 -1.00356,-0.659396 z m 1.64745,1.354436 -7.65793,0.74363 a 4.2287,3.5424796 10.213518 0 0 -0.0915,0.76584 l 8.15247,-0.79168 a 4.2287,3.5424796 10.213518 0 0 -0.40307,-0.71779 z m 0.61133,1.45418 -8.26823,0.80357 a 4.2287,3.5424796 10.213518 0 0 0.2806,0.73018 l 8.02329,-0.77979 a 4.2287,3.5424796 10.213518 0 0 0.004,-0.48938 4.2287,3.5424796 10.213518 0 0 -0.0398,-0.26458 z" />
        <path
           id="path45"
           style="display:inline;fill:#e29e7f;fill-opacity:1;stroke-width:0.294741;stroke-linecap:round;stroke-linejoin:round;paint-order:markers fill stroke"
           d="m 445.9797,47.223193 c -1.01082,0.16457 -1.11371,0.53654 -1.54977,0.55231 -0.6023,0.0218 -0.64194,-0.517 -2.4691,-0.45092 -0.37853,0.0137 -0.71853,0.0174 -1.03508,0.0178 -0.31601,0.15094 -0.53402,0.42974 -0.48059,0.74619 0.088,0.52105 0.15357,1.03288 0.22272,1.5462 0.0129,0.009 0.0257,0.0188 0.0388,0.0275 0.69819,0.47068 2.27795,0.83514 3.3662,0.10762 0.40773,-0.3255 0.59583,-0.33219 0.59583,-0.33219 0,0 0.18852,-0.007 0.68471,0.28594 1.26218,0.63053 2.69191,0.18335 3.26905,-0.32195 0.002,-0.43143 -0.0116,-0.86715 -0.0589,-1.31319 -0.0507,-0.47747 -0.44845,-0.86536 -1.00562,-0.86536 z m 1.28261,0.65948 c 0.17689,-0.006 0.36885,-9e-5 0.57619,0.02 0.10533,0.85113 -1.25096,1.48942 -2.25464,0.67105 -0.0637,-0.0521 0.4402,-0.65011 1.67845,-0.69105 z m -5.34851,0.20101 c 1.07272,0.0299 1.64721,0.51263 1.60249,0.56475 -0.75925,0.88214 -2.2841,0.34787 -2.42311,-0.50206 0.29913,-0.0522 0.57307,-0.0696 0.82062,-0.0627 z" />
        <rect
           style="display:inline;fill:#ffffff;fill-opacity:1;stroke:none;stroke-width:0.0757221;stroke-linecap:round;stroke-linejoin:round;stroke-dasharray:none;paint-order:markers fill stroke"
           id="rect39-7"
           width="6.879796"
           height="1.4310125"
           x="442.87717"
           y="86.87236"
           rx="0.036177311"
           ry="0.036453772"
           transform="matrix(0.99611176,-0.08809857,0,1,0,0)" />
        <path
           class="st0"
           d="m 448.75055,46.622123 c -0.25303,0.028 -1.11072,0.14991 -2.23412,0.19712 -1.583,0.0665 -1.61548,0.63531 -2.09228,0.65535 -0.54437,0.0229 -0.58005,-0.54305 -2.23148,-0.47365 -1.12341,0.0472 -2.00223,-0.002 -2.25945,-0.008 -0.1853,-0.005 0.29221,1.81059 1.12563,2.46364 0.63104,0.49435 2.0591,0.87697 3.04268,0.11286 0.36852,-0.34188 0.53833,-0.34902 0.53833,-0.34902 0,0 0.17068,-0.007 0.61915,0.30038 1.16099,0.67398 2.4805,0.1759 2.98323,-0.3661 0.66426,-0.71599 0.69082,-2.55235 0.50834,-2.5323 z m -5.15214,1.76947 c -0.68622,0.9265 -2.06456,0.36523 -2.1902,-0.52744 1.44192,-0.29251 2.23996,0.46007 2.1902,0.52744 z m 1.86871,-0.0785 c -0.0658,-0.0626 0.53868,-0.87404 2.03789,-0.70512 0.0952,0.89394 -1.13074,1.56466 -2.03789,0.70512 z"
           id="path1-7"
           style="display:inline;fill:#333949;fill-opacity:1;stroke-width:0.0590434" />
        <path
           style="color:#000000;display:inline;fill:#6e3e95;fill-opacity:1;stroke-width:0.142818;stroke-linecap:round;-inkscape-stroke:none"
           d="m 446.94802,50.455293 a 0.13229166,0.13229166 0 0 0 -0.0996,0.01 c -2.09191,1.08484 -3.30634,0.78171 -4.44336,0.25781 a 0.13229166,0.13229166 0 0 0 -0.17578,0.0645 0.13229166,0.13229166 0 0 0 0.0645,0.17578 c 1.16969,0.53896 2.52715,0.85059 4.67578,-0.26367 a 0.13229166,0.13229166 0 0 0 0.0566,-0.17773 0.13229166,0.13229166 0 0 0 -0.0781,-0.0664 z"
           id="path22" />
        <ellipse
           style="display:inline;fill:#e29e7f;fill-opacity:1;stroke:none;stroke-width:0.0378747;stroke-linecap:round;stroke-linejoin:round;stroke-dasharray:none;paint-order:markers fill stroke"
           id="path25"
           cx="453.04279"
           cy="85.007347"
           rx="0.76391745"
           ry="1.290872"
           transform="matrix(0.99695031,-0.07803901,-0.01781973,0.99984122,0,0)" />
        <path
           id="path24"
           style="display:inline;fill:#ffd3b4;fill-opacity:1;stroke:none;stroke-width:0.0377874;stroke-linecap:round;stroke-linejoin:round;stroke-dasharray:none;paint-order:markers fill stroke"
           d="m 451.71699,47.817793 c -0.96985,0.076 -1.7248,0.5352 -1.68623,1.02563 0.0187,0.23388 0.21921,0.44394 0.55788,0.58456 -0.23055,0.61681 -0.17236,1.19561 -0.12075,1.85476 0.19975,1.17236 1.30236,0.86432 2.16448,0.83928 1.05785,-0.0828 1.8392,-1.12354 1.74525,-2.32454 -0.0941,-1.201 -1.02784,-2.10746 -2.0857,-2.02468 -0.0747,0.007 -0.14888,0.0187 -0.22218,0.0355 -0.11653,-0.003 -0.23472,-6e-5 -0.35277,0.009 z" />
        <path
           id="path32"
           style="display:inline;fill:#d74d86;fill-opacity:1;stroke-width:0.0377874;stroke-linecap:round;stroke-linejoin:round;paint-order:markers fill stroke"
           d="m 454.83695,56.390773 h 1.56414 c 0.25185,0 0.40029,0.21342 0.45457,0.46493 0.2468,1.14348 0.25539,2.19637 0.25208,3.24474 -8.1e-4,0.25756 -0.20272,0.46492 -0.45456,0.46492 h -3.00163 c -0.25184,0 -0.45457,-0.20736 -0.45457,-0.46492 v -2.21408 c 0,-0.23176 1.41354,-1.49559 1.63997,-1.49559 z" />
        <path
           id="rect32"
           style="display:inline;fill:#a651a6;stroke-width:0.0377874;stroke-linecap:round;stroke-linejoin:round;paint-order:markers fill stroke"
           d="m 454.91631,56.968913 h 1.50949 c 0.24303,0 0.3863,0.20137 0.43868,0.43867 0.23817,1.07894 0.24645,2.0724 0.24327,3.06158 -7.8e-4,0.24302 -0.19564,0.43868 -0.43868,0.43868 h -2.89672 c -0.24304,0 -0.43868,-0.19566 -0.43868,-0.43868 v -2.08908 c 0,-0.21869 1.36413,-1.41117 1.58264,-1.41117 z" />
        <path
           style="color:#000000;display:inline;fill:#333949;fill-opacity:1;stroke-width:0.142818;stroke-linecap:round;-inkscape-stroke:none"
           d="m 457.44897,55.228203 c -0.51681,-0.19751 -0.99162,-0.11407 -1.29481,0.16882 -0.30319,0.28287 -0.4323,0.71468 -0.4292,1.16909 a 0.24327778,0.24327778 0 0 0 0.24423,0.24244 0.24327778,0.24327778 0 0 0 0.24243,-0.24604 c -0.003,-0.35596 0.10739,-0.65375 0.27477,-0.80992 0.16739,-0.15617 0.39409,-0.22141 0.79018,-0.0701 a 0.24327778,0.24327778 0 0 0 0.31247,-0.14007 0.24327778,0.24327778 0 0 0 -0.14007,-0.31428 z"
           id="path33" />
        <path
           id="path37"
           style="display:inline;fill:#f0716c;fill-opacity:1;stroke-width:0.0377874;stroke-linecap:round;stroke-linejoin:round;paint-order:markers fill stroke"
           d="m 434.13368,57.196373 0.76037,-0.0534 c 0.12244,-0.009 0.20189,0.0901 0.23687,0.21048 0.15908,0.54744 0.19918,1.059 0.23339,1.56875 0.008,0.12523 -0.0827,0.23295 -0.20508,0.24155 l -1.45919,0.10255 c -0.12243,0.009 -0.22807,-0.0853 -0.23686,-0.21049 l -0.0756,-1.07633 c -0.008,-0.11266 0.63606,-0.77534 0.74614,-0.78308 z" />
        <path
           id="path34"
           style="display:inline;fill:#d74d86;fill-opacity:1;stroke-width:0.0377874;stroke-linecap:round;stroke-linejoin:round;paint-order:markers fill stroke"
           d="m 436.61247,56.176833 -1.27116,0.125 c -0.20468,0.0201 -0.30826,0.20544 -0.33227,0.41417 -0.10918,0.94902 -0.032,1.80538 0.0545,2.65711 0.0212,0.20926 0.2019,0.36164 0.40656,0.34151 l 2.43941,-0.23988 c 0.20466,-0.0201 0.35284,-0.20485 0.33226,-0.41417 l -0.17695,-1.79936 c -0.0185,-0.18835 -1.26829,-1.10248 -1.45231,-1.08438 z" />
        <path
           style="color:#000000;display:inline;fill:#a651a6;fill-opacity:1;stroke-width:0.142818;stroke-linecap:round;-inkscape-stroke:none"
           d="m 434.39679,55.440763 c 0.40423,-0.20181 0.79677,-0.1719 1.06578,0.0337 0.26901,0.20565 0.40844,0.54627 0.44224,0.91581 a 0.19866318,0.19866318 0 0 1 -0.17911,0.21655 0.19866318,0.19866318 0 0 1 -0.21668,-0.18058 c -0.0265,-0.28948 -0.13953,-0.52272 -0.28803,-0.63626 -0.14853,-0.11354 -0.33797,-0.14844 -0.64777,0.006 a 0.19866318,0.19866318 0 0 1 -0.26514,-0.0889 0.19866318,0.19866318 0 0 1 0.0887,-0.26662 z"
           id="path36" />
        <path
           id="path42"
           style="display:inline;fill:#ffa386;fill-opacity:1;stroke-width:0.0377874;stroke-linecap:round;stroke-linejoin:round;paint-order:markers fill stroke"
           d="m 450.26626,52.477147 c 0.31664,0.584965 0.52415,1.202991 0.57361,1.842781 0.28186,3.642044 -2.74217,6.59443 -6.7536,6.59443 -0.0649,0 -0.12913,-0.003 -0.1938,-0.005 0.58403,0.150284 1.19484,0.232544 1.82107,0.232544 3.55193,0 6.22927,-2.592637 5.98,-5.790867 -0.0816,-1.046437 -0.64319,-2.027063 -1.4273,-2.874243 z" />
        <ellipse
           style="display:inline;fill:#ffa386;fill-opacity:1;stroke:none;stroke-width:0.0763223;stroke-linecap:round;stroke-linejoin:round;stroke-dasharray:none;paint-order:markers fill stroke"
           id="path44"
           cx="325.78296"
           cy="246.09554"
           rx="1.5737554"
           ry="0.81831092"
           transform="matrix(0.8906603,-0.45466937,0.6207976,0.78397088,0,0)" />
        <path
           id="path46"
           style="display:inline;fill:#e8bba1;fill-opacity:1;stroke-width:0.294741;stroke-linecap:round;stroke-linejoin:round;paint-order:markers fill stroke"
           d="m 448.54389,52.508153 c -0.1634,0.0796 -0.3452,0.14503 -0.53589,0.19792 -1.75448,0.48661 -4.07976,0.51373 -6.25336,0.25683 -0.23196,-0.0274 -0.42895,-0.0976 -0.59325,-0.20102 0.15302,0.44539 0.46489,0.75595 0.9524,0.82217 1.89222,0.2569 3.91676,0.22978 5.44411,-0.25683 0.46794,-0.14908 0.89193,-0.38394 0.98599,-0.81907 z" />
        <path
           id="path47"
           style="display:inline;fill:#e8bba1;fill-opacity:1;stroke:none;stroke-width:0.0377874;stroke-linecap:round;stroke-linejoin:round;stroke-dasharray:none;paint-order:markers fill stroke"
           d="m 454.38126,49.863873 c -0.15341,0.95181 -0.87479,1.73045 -1.79886,1.84898 -0.74353,0.0603 -1.65816,0.32232 -2.07119,-0.2434 0.28234,0.95061 1.30862,0.67628 2.12132,0.65268 1.03826,-0.0813 1.80932,-1.0856 1.74873,-2.25826 z" />
        <path
           id="path1-5"
           style="display:inline;fill:#a651a6;fill-opacity:1;stroke-width:0.0377874;stroke-linecap:round;stroke-linejoin:round;paint-order:markers fill stroke"
           d="m 438.71317,56.108523 c 0.0565,0.38372 0.14849,0.77658 0.28579,1.16689 0.78165,2.22187 2.24248,3.70133 3.26297,3.30447 0.0165,-0.006 0.0322,-0.0147 0.0478,-0.0229 -0.11335,0.14837 -0.24948,0.25833 -0.40879,0.32028 -0.9036,0.3514 -2.19207,-0.94558 -2.87792,-2.89693 -0.22436,-0.63847 -0.31126,-1.28478 -0.31025,-1.87272 z" />
        <path
           style="display:inline;fill:#d74d86;fill-opacity:1;stroke:none;stroke-width:0.0226725;stroke-linecap:square;stroke-linejoin:bevel;stroke-miterlimit:4;stroke-dasharray:none;stroke-opacity:1;paint-order:markers fill stroke"
           id="path2-3"
           d="m 452.39288,45.444663 c 0.0283,-0.29324 -0.002,-0.59406 -0.0491,-0.88843 -0.0602,-0.27768 -0.19103,-0.524458 -0.38316,-0.712236 -0.0385,-0.0379 -0.0802,-0.07062 -0.12036,-0.105891 -0.0436,-0.03263 -0.0868,-0.06593 -0.13103,-0.09753 -0.18615,-0.134406 -0.0883,-0.05685 -0.2753,-0.195247 -0.14129,-0.104503 -0.27742,-0.216252 -0.4124,-0.331993 -0.21062,-0.192389 -0.42105,-0.393754 -0.59343,-0.634676 -0.0339,-0.04739 -0.0643,-0.0979 -0.0965,-0.146802 -0.15379,-0.2607 -0.25532,-0.555191 -0.30474,-0.859413 -0.009,-0.05553 -0.0142,-0.11145 -0.0211,-0.167177 -0.0316,-0.266967 0.003,-0.517644 0.0376,-0.774776 -0.044,-0.01188 -0.0324,0.004 -0.033,-0.04924 0,0 -0.008,0.01139 -0.008,0.01139 v 0 c -0.0736,0.165878 -0.0312,0.07267 -0.12842,0.278616 -0.009,0.03811 -0.0211,0.07555 -0.0283,0.114416 -0.0417,0.221341 -0.032,0.459046 -0.0129,0.687222 0.008,0.05566 0.0142,0.111559 0.0244,0.166908 0.0553,0.306078 0.16092,0.602701 0.31842,0.863981 0.0328,0.04952 0.0639,0.100675 0.0988,0.148526 0.17478,0.241518 0.38821,0.442332 0.59981,0.636799 0.11741,0.09948 0.1548,0.133275 0.27547,0.226821 0.17851,0.137842 0.36425,0.261356 0.54326,0.398194 0.0404,0.03247 0.0818,0.06332 0.12103,0.09779 0.19485,0.17402 0.32511,0.38441 0.39532,0.65525 0.0114,0.0557 0.0255,0.11082 0.0344,0.16684 0.0365,0.23558 0.03,0.47377 0.0133,0.70675 0,0 0.13676,-0.19651 0.13676,-0.19651 z" />
        <path
           id="path3-5"
           style="display:inline;fill:#f0716c;fill-opacity:1;stroke-width:0.0590434"
           class="st0"
           d="m 439.23475,47.543663 c -0.15234,-0.004 0.24014,1.48883 0.92534,2.02573 0.29105,0.228 0.78828,0.42655 1.31154,0.44652 a 4.5516995,3.0499552 7.7917094 0 1 -2.16593,-2.45101 4.5516995,3.0499552 7.7917094 0 1 -0.002,-0.0187 c -0.0196,-6.6e-4 -0.0549,-0.002 -0.0696,-0.002 z" />
        <ellipse
           style="display:inline;fill:#ffffff;fill-opacity:1;stroke:none;stroke-width:0.07724;stroke-linecap:round;stroke-linejoin:round;stroke-dasharray:none;paint-order:markers fill stroke"
           id="ellipse4"
           cx="-451.74005"
           cy="-274.83636"
           rx="0.79248375"
           ry="0.51702392"
           transform="matrix(-0.74992904,-0.66151828,-0.41659968,0.90909004,0,0)" />
      </g>
    </g>
  </g>
</svg>
