<?xml version="1.0" encoding="UTF-8" standalone="no"?>
<!-- Created with Inkscape (http://www.inkscape.org/) -->

<svg
   width="57.197662mm"
   height="36.401962mm"
   viewBox="0 0 57.197662 36.401963"
   version="1.1"
   id="svg1"
   sodipodi:docname="ill_matchbox_2.svg"
   xmlns:inkscape="http://www.inkscape.org/namespaces/inkscape"
   xmlns:sodipodi="http://sodipodi.sourceforge.net/DTD/sodipodi-0.dtd"
   xmlns="http://www.w3.org/2000/svg"
   xmlns:svg="http://www.w3.org/2000/svg">
  <sodipodi:namedview
     id="namedview43"
     pagecolor="#ffffff"
     bordercolor="#666666"
     borderopacity="1.0"
     inkscape:showpageshadow="2"
     inkscape:pageopacity="0.0"
     inkscape:pagecheckerboard="0"
     inkscape:deskcolor="#d1d1d1"
     inkscape:document-units="mm"
     showgrid="false" />
  <defs
     id="defs1" />
  <g
     id="layer1"
     transform="matrix(0.3,0,0,0.3,-3.3215332,-12.620625)">
    <circle
       style="display:inline;fill:#ffffff;fill-opacity:1;stroke-width:0.873126;stroke-linecap:round;paint-order:markers fill stroke"
       id="circle37326"
       cx="58.584755"
       cy="116.03087"
       r="23.256197"
       transform="rotate(-12.146839)" />
    <circle
       style="display:inline;fill:#ffffff;fill-opacity:1;stroke-width:0.873126;stroke-linecap:round;paint-order:markers fill stroke"
       id="circle37328"
       cx="49.684731"
       cy="95.489876"
       r="24.527355"
       transform="rotate(-12.146839)" />
    <circle
       style="display:inline;fill:#ffffff;fill-opacity:1;stroke-width:0.873126;stroke-linecap:round;paint-order:markers fill stroke"
       id="circle37330"
       cx="89.242615"
       cy="128.96893"
       r="27.362848"
       transform="rotate(-12.146839)" />
    <circle
       style="display:inline;fill:#ffffff;fill-opacity:1;stroke-width:0.873128;stroke-linecap:round;paint-order:markers fill stroke"
       id="circle37332"
       cx="85.230217"
       cy="92.486984"
       r="17.432274"
       transform="rotate(-12.146839)" />
    <circle
       style="display:inline;fill:#ffffff;fill-opacity:1;stroke-width:0.873126;stroke-linecap:round;paint-order:markers fill stroke"
       id="circle37334"
       cx="104.8799"
       cy="88.167076"
       r="22.055803"
       transform="rotate(-12.146839)" />
    <circle
       style="display:inline;fill:#ffffff;fill-opacity:1;stroke-width:0.873126;stroke-linecap:round;paint-order:markers fill stroke"
       id="circle37336"
       cx="128.06032"
       cy="106.31413"
       r="26.34963"
       transform="rotate(-12.146839)" />
    <circle
       style="display:inline;fill:#ffffff;fill-opacity:1;stroke-width:0.873126;stroke-linecap:round;paint-order:markers fill stroke"
       id="circle37340"
       cx="60.198177"
       cy="64.009079"
       r="5.8820648"
       transform="rotate(-12.146839)" />
    <path
       style="display:inline;fill:#b8bed1;fill-opacity:1;stroke:none;stroke-width:0.264581px;stroke-linecap:butt;stroke-linejoin:miter;stroke-opacity:1"
       d="m 161.37937,82.754409 c 8.15173,-1.661727 16.17445,-2.457926 24.07475,-2.433375 3.51091,0.152562 4.12397,0.441171 6.35549,2.292835 3.2085,3.401119 6.41698,6.802244 9.62546,10.203363 0.69739,1.070904 -0.0545,2.666189 -0.0816,3.999296 -0.26401,1.057837 -1.41343,2.78406 -2.3308,3.670722 -7.53442,5.33112 -15.06085,9.10851 -22.99176,13.83432 -1.36745,0.72754 -2.50474,0.45265 -3.67104,0.071 -5.78554,-5.55009 -11.57115,-11.10015 -17.35667,-16.650231 1.31397,-4.175254 2.62797,-8.350476 3.94199,-12.525724 0.4101,-0.992567 0.92356,-1.907305 2.43419,-2.462168 z"
       id="path53" />
    <path
       style="display:inline;fill:#333949;fill-opacity:1;stroke:none;stroke-width:0.264581px;stroke-linecap:butt;stroke-linejoin:miter;stroke-opacity:1"
       d="m 72.20824,87.32053 c 17.92819,-7.142464 35.91731,-12.255878 53.96422,-15.445199 8.07821,-1.093933 9.5964,-0.686871 15.45175,2.623865 8.72226,6.446899 17.44453,12.893798 26.16682,19.340698 2.03204,2.158444 0.971,6.109378 1.45652,9.164106 -0.16805,2.52354 -2.08327,6.93676 -3.81341,9.33789 -15.0115,15.26627 -30.64296,26.98199 -46.80828,41.02922 -2.82308,2.22271 -5.53247,2.06232 -8.35198,1.67001 -15.488596,-10.29445 -30.977248,-20.58883 -46.465848,-30.88327 1.284745,-10.07207 2.569516,-20.14407 3.854261,-30.216137 0.52868,-2.434545 1.325072,-4.733853 4.545947,-6.621183 z"
       id="path1" />
    <path
       style="display:inline;fill:#333949;fill-opacity:1;stroke:none;stroke-width:0.264581px;stroke-linecap:butt;stroke-linejoin:miter;stroke-opacity:1"
       d="m 70.522282,95.119726 c -6.125701,4.083535 -12.251326,8.167074 -18.377028,12.250604 -1.490941,1.21756 -2.456546,3.20051 -2.910429,4.74226 -1.247992,4.51689 -2.496036,9.03385 -3.744029,13.55075 -0.283578,1.69573 0.03574,3.39139 1.365069,5.08712 6.691794,6.01596 15.516787,13.25569 44.389328,31.99529 2.631642,0.6598 4.606525,0.71967 6.229724,0.0913 5.762813,-3.60095 11.238403,-7.47515 16.496963,-11.55583 2.36137,-6.48972 5.52367,-12.36989 7.08409,-19.46917 0.26437,-2.57619 0.5287,-5.15232 0.79269,-7.72851 -14.93653,-10.24364 -29.873052,-20.48729 -44.809578,-30.730937 -2.172283,0.589257 -4.344542,1.178155 -6.5168,1.767199 z"
       id="path3" />
    <path
       style="display:inline;fill:#ffffff;fill-opacity:1;stroke:none;stroke-width:0.264581px;stroke-linecap:butt;stroke-linejoin:miter;stroke-opacity:1"
       d="m 98.501305,143.33972 c -17.218028,-7.79784 -50.038716,-26.36866 -46.356051,-35.96939 -1.490941,1.21756 -2.456546,3.20051 -2.910429,4.74226 -1.247992,4.51689 -2.496036,9.03385 -3.744029,13.55075 -0.283578,1.69573 0.03574,3.39139 1.365069,5.08712 6.691794,6.01596 15.516787,13.25569 44.389328,31.99529 2.631642,0.6598 4.606525,0.71967 6.229724,0.0913 5.762813,-3.60095 11.238403,-7.47515 16.496963,-11.55583 2.36137,-6.48972 5.52367,-12.36989 7.08409,-19.46917 0.26437,-2.57619 0.5287,-5.15232 0.79269,-7.72851 -3.48823,5.15303 -9.68744,10.95246 -19.01351,17.49741 -1.56442,0.97237 -2.895322,1.8559 -4.333845,1.75885 z"
       id="path4" />
    <path
       style="display:inline;fill:#b8bed1;fill-opacity:1;stroke:none;stroke-width:0.264581px;stroke-linecap:butt;stroke-linejoin:miter;stroke-opacity:1"
       d="m 91.245193,162.74575 c 2.631642,0.6598 4.606525,0.71967 6.229724,0.0913 5.762813,-3.60095 11.238403,-7.47515 16.496963,-11.55583 2.36137,-6.48972 5.52367,-12.36989 7.08409,-19.46917 0.26437,-2.57619 0.5287,-5.15232 0.79269,-7.72851 -3.48823,5.15303 -9.68744,10.95246 -19.01351,17.49741 -2.840675,9.06691 -7.108822,18.66928 -11.589957,21.16488 z"
       id="path5" />
    <path
       id="path6"
       style="display:inline;fill:#4c5871;fill-opacity:1;stroke:none;stroke-width:0.264581px;stroke-linecap:butt;stroke-linejoin:miter;stroke-opacity:1"
       d="m 77.040147,93.353882 c -2.172258,0.589256 -4.345024,1.17837 -6.517307,1.767411 -6.125676,4.083535 -12.251453,8.166647 -18.377156,12.250177 -1.119662,2.91906 1.148584,6.6665 5.313216,10.68905 8.921841,-6.09 18.976729,-12.11587 29.165599,-18.134122 z M 50.300981,109.62126 c -0.233695,0.40471 -0.433934,0.81962 -0.607786,1.22611 0.173878,-0.40757 0.373356,-0.82048 0.607786,-1.22611 z m -0.644134,1.31445 c -0.170329,0.40757 -0.313513,0.80524 -0.423238,1.17831 0.109751,-0.37193 0.254379,-0.77231 0.423238,-1.17831 z" />
    <path
       style="display:inline;fill:#677999;fill-opacity:1;stroke:none;stroke-width:0.264581px;stroke-linecap:butt;stroke-linejoin:miter;stroke-opacity:1"
       d="m 72.20824,87.32053 c 17.92819,-7.142464 35.91731,-12.255878 53.96422,-15.445199 8.07821,-1.093933 9.5964,-0.686871 15.45175,2.623865 l 26.16682,19.340698 c 0.35695,2.62778 0.0152,4.815581 -0.78821,5.628853 -16.27807,15.076893 -34.43425,25.166133 -45.71121,32.604443 -0.33774,-2.19265 -0.6655,-1.86332 -2.01673,-3.64847 -2.96031,-3.15911 -42.835677,-30.382586 -51.612587,-34.483007 0.52868,-2.434545 1.325072,-4.733853 4.545947,-6.621183 z"
       id="path2" />
    <path
       id="path20"
       style="display:inline;fill:#4c5871;fill-opacity:1;stroke:none;stroke-width:0.264999;stroke-linecap:round;stroke-linejoin:round;stroke-miterlimit:4;stroke-dasharray:none;stroke-opacity:1;paint-order:markers fill stroke"
       d="m 112.53513,74.660081 c -2.15266,0.498054 -4.30725,1.022256 -6.4583,1.575888 1.31377,0.977292 3.06413,1.136614 4.53264,0.412549 0.84073,-0.436064 1.5167,-1.134049 1.92566,-1.988292 z m 19.72854,1.296078 c -0.76531,-0.03561 -1.52737,0.125416 -2.20924,0.475252 -2.1457,1.100065 -2.99181,3.732334 -1.8889,5.876598 1.09999,2.143552 3.72955,2.989314 5.87289,1.888898 2.14141,-1.099924 2.98682,-3.726777 1.88888,-5.869189 -0.70966,-1.38842 -2.10636,-2.292538 -3.66363,-2.371272 z m -35.240987,2.794655 c -2.695338,0.793678 -5.389508,1.635594 -8.082134,2.518552 0.02028,0.491639 0.126226,0.975727 0.309229,1.432311 1.099918,2.141414 3.726768,2.986821 5.869194,1.888895 2.129853,-1.094077 2.979549,-3.700625 1.903635,-5.839758 z m 57.211817,5.066531 c -0.25438,0.02849 -0.50589,0.0862 -0.75114,0.161737 -2.14355,1.099991 -2.98931,3.729554 -1.88889,5.872892 1.09862,2.144904 3.72854,2.992379 5.8729,1.89253 1.42346,-0.734825 2.32951,-2.190791 2.36014,-3.79247 z m -75.154556,0.868992 c -1.746309,0.644832 -3.490715,1.319876 -5.235883,2.003042 -0.657668,1.227888 -0.689022,2.695897 -0.08491,3.950862 1.098651,2.144905 3.728567,2.99238 5.872894,1.892531 2.143566,-1.099991 2.989333,-3.729554 1.888909,-5.872891 -0.540796,-0.938037 -1.410795,-1.64144 -2.441237,-1.973544 z m 61.125916,6.760266 c -0.76531,-0.03561 -1.52735,0.125414 -2.20924,0.475251 -2.14356,1.099994 -2.98933,3.729556 -1.8889,5.872895 1.09858,2.142766 3.72577,2.989951 5.86919,1.8926 2.14498,-1.098637 2.99245,-3.728557 1.89261,-5.872893 -0.71039,-1.386994 -2.10715,-2.289546 -3.66366,-2.367568 z m -38.91936,0.394026 c -0.76413,-0.03564 -1.524732,0.126125 -2.205568,0.475251 -2.144961,1.098638 -2.992425,3.728555 -1.892584,5.872893 1.098625,2.144977 3.728542,2.992447 5.872892,1.892597 2.14496,-1.098634 2.99245,-3.728554 1.89259,-5.872888 -0.71108,-1.388137 -2.10948,-2.29083 -3.66733,-2.36757 z m 62.34831,7.150585 c -0.76531,-0.03561 -1.52737,0.125415 -2.20926,0.475252 -2.14568,1.100064 -2.99179,3.732334 -1.88888,5.876594 0.0984,0.12113 0.20225,0.23656 0.3128,0.34629 2.1414,-1.76114 4.27113,-3.59553 6.37356,-5.5157 -0.70681,-0.672626 -1.61777,-1.088382 -2.58845,-1.181937 z m -38.9194,0.394023 c -0.7641,-0.03561 -1.52472,0.126126 -2.20554,0.475255 -2.14711,1.098708 -2.99501,3.731408 -1.89261,5.876598 1.1,2.14355 3.72957,2.98931 5.8729,1.8889 2.14279,-1.09857 2.98997,-3.72578 1.89261,-5.86919 -0.71039,-1.38956 -2.10871,-2.293824 -3.66736,-2.371276 z m -38.915665,0.394027 c -0.765393,-0.03564 -1.527364,0.125416 -2.209239,0.475256 -0.839152,0.4781 -1.495731,1.22176 -1.866806,2.11348 2.302717,1.47941 4.647054,3.003 7.12849,4.64308 1.180141,-1.34197 1.422328,-3.26799 0.611336,-4.86033 -0.709655,-1.38842 -2.106356,-2.292539 -3.663629,-2.371273 z m 62.344615,7.154296 c -0.7641,-0.0356 -1.52473,0.12612 -2.20554,0.47525 -2.14357,1.09999 -2.98931,3.72955 -1.88891,5.87289 0.6192,1.095 1.68079,1.86944 2.91251,2.12452 1.75873,-1.22823 3.52343,-2.47893 5.30951,-3.80359 0.057,-0.79473 -0.0999,-1.59062 -0.46029,-2.30122 -0.7111,-1.38814 -2.1095,-2.29083 -3.66736,-2.36757 z m -38.91567,0.39402 c -0.76532,-0.0356 -1.52736,0.12541 -2.20927,0.47525 -2.14354,1.09999 -2.9893,3.72956 -1.88888,5.8729 1.09863,2.14497 3.72857,2.99244 5.8729,1.8926 2.14354,-1.1 2.98931,-3.72956 1.88888,-5.87289 -0.71037,-1.387 -2.10714,-2.28955 -3.66363,-2.36757 z m 23.42891,7.54825 c -0.76531,-0.0356 -1.52736,0.12541 -2.20923,0.47525 -2.14354,1.09998 -2.9893,3.72955 -1.88888,5.87289 1.09862,2.14497 3.72853,2.99244 5.87289,1.8926 2.14354,-1.09999 2.98931,-3.72955 1.88889,-5.87289 -0.71039,-1.387 -2.10715,-2.28955 -3.66367,-2.36757 z m -15.48672,7.93849 c -0.76531,-0.0356 -1.52736,0.12541 -2.20924,0.47525 -0.40544,0.26079 -0.76511,0.5864 -1.06407,0.96476 2.69354,1.9672 4.82184,3.58056 5.37575,4.17174 0.52441,0.69257 0.86499,1.05025 1.14146,1.37709 1.01406,-1.33113 1.17709,-3.12512 0.41968,-4.61729 -0.70967,-1.38842 -2.10635,-2.29254 -3.66365,-2.37127 z" />
    <path
       style="display:inline;fill:#ffffff;fill-opacity:1;stroke:none;stroke-width:0.264581px;stroke-linecap:butt;stroke-linejoin:miter;stroke-opacity:1"
       d="m 110.46997,82.867979 c 5.40413,4.541047 4.68127,8.992884 3.5904,13.835612 -1.09115,4.842939 -0.87291,6.917379 2.46405,11.085419 3.33509,4.16961 8.67679,5.32118 14.92449,1.96436 6.24745,-3.35699 8.16655,-9.64734 3.84889,-15.338969 -4.31781,-5.691483 -7.73707,-7.743049 -24.82819,-11.546348 z"
       id="path18" />
    <path
       style="display:inline;fill:#b8bed1;fill-opacity:1;stroke:none;stroke-width:0.264581px;stroke-linecap:butt;stroke-linejoin:miter;stroke-opacity:1"
       d="m 110.46997,82.867979 c 5.40413,4.541047 4.68127,8.992884 3.5904,13.835612 -1.09115,4.842939 -0.87291,6.917379 2.46405,11.085419 3.33509,4.16961 6.03141,4.54268 9.23763,0.84911 6.63885,-7.64807 -10.44543,-23.869771 -15.29244,-25.770067 z"
       id="path19" />
    <path
       id="path49"
       style="display:inline;fill:#4c5871;fill-opacity:1;stroke:none;stroke-width:0.264581px;stroke-linecap:butt;stroke-linejoin:miter;stroke-opacity:1"
       d="m 134.71129,66.793162 c -1.19537,-0.06413 -2.62697,0.0839 -4.68563,0.390138 -8.17903,1.587797 -16.34026,3.830707 -24.48374,6.7194 7.90085,-2.136747 15.81537,-3.857075 23.74405,-5.143197 6.56995,-0.816625 7.80464,-0.512963 12.56676,1.958523 l 3.73496,2.534442 -5.06124,-4.109667 c -2.48696,-1.544678 -3.82291,-2.242766 -5.81516,-2.349639 z" />
    <path
       id="path50"
       style="display:inline;fill:#ffffff;fill-opacity:1;stroke:none;stroke-width:0.264581px;stroke-linecap:butt;stroke-linejoin:miter;stroke-opacity:1"
       d="m 105.73653,140.07105 c -0.51874,0.50614 -1.04935,1.01675 -1.60368,1.53418 -1.75305,7.44217 -6.368778,17.56843 -9.134148,19.61685 1.110057,0.37018 3.437994,-3.13302 3.970957,-3.76678 2.695181,-3.20473 5.242501,-9.60525 6.766871,-17.38425 z" />
    <path
       id="path51"
       style="display:inline;fill:#ffffff;fill-opacity:1;stroke:none;stroke-width:0.264581px;stroke-linecap:butt;stroke-linejoin:miter;stroke-opacity:1"
       d="m 107.72231,138.46158 c -0.28413,0.3958 -0.57476,0.79508 -0.87839,1.1997 -0.96018,5.8196 -3.48833,13.73808 -5.00297,15.33989 0.60799,0.28947 1.88306,-2.44993 2.17497,-2.94552 1.47622,-2.50603 2.87145,-7.51108 3.70639,-13.59407 z" />
    <path
       id="path52"
       style="display:inline;fill:#ffffff;fill-opacity:1;stroke:none;stroke-width:0.264581px;stroke-linecap:butt;stroke-linejoin:miter;stroke-opacity:1"
       d="m 67.712328,93.73384 c -0.01521,0.06973 -0.03447,0.138317 -0.04968,0.208274 8.776885,4.100416 48.652002,31.323336 51.612312,34.482436 1.35123,1.78515 1.67937,1.45653 2.01711,3.64917 0.77183,-0.50911 1.64865,-1.0633 2.48212,-1.59799 -0.14903,-0.17051 -0.26603,-0.28823 -0.44663,-0.51476 C 120.0994,126.65844 77.685117,98.471252 67.712404,93.733851 Z" />
    <path
       style="display:inline;fill:#677999;fill-opacity:1;stroke:none;stroke-width:0.264581px;stroke-linecap:butt;stroke-linejoin:miter;stroke-opacity:1"
       d="m 32.314393,105.18438 c -3.453278,-2.3438 -7.014001,-4.26194 -10.676565,-5.776434 -1.654984,-0.607463 -1.994578,-0.592242 -3.3854,-0.165919 -2.142399,0.955013 -4.2848,1.910043 -6.427224,2.865063 -0.52972,0.36113 -0.489698,1.24496 -0.734622,1.86742 -0.08212,0.54076 0.116594,1.562 0.370188,2.1497 2.458751,3.92348 5.213881,7.12605 7.973142,10.84586 0.492586,0.60095 1.072239,0.69334 1.685983,0.74187 3.750619,-1.45224 7.501264,-2.90447 11.251883,-4.35672 0.197957,-2.18691 0.396066,-4.37381 0.594099,-6.56072 0.0013,-0.53877 -0.05931,-1.06145 -0.651484,-1.61011 z"
       id="path54" />
    <circle
       style="display:inline;fill:#ffffff;fill-opacity:1;stroke-width:0.873126;stroke-linecap:round;paint-order:markers fill stroke"
       id="circle69"
       cx="139.41045"
       cy="142.17664"
       r="21.476725"
       transform="rotate(-12.146839)" />
    <path
       style="fill:#b8bed1;fill-opacity:1;stroke:none;stroke-width:0.264581px;stroke-linecap:butt;stroke-linejoin:miter;stroke-opacity:1"
       d="m 161.37934,82.754412 c 8.15174,-1.661727 16.17446,-2.457925 24.07476,-2.433375 3.51091,0.152562 4.12397,0.441171 6.35549,2.292835 3.2085,3.401119 6.41698,6.802244 9.62546,10.203363 0.69739,1.070904 -0.0545,2.666189 -0.0816,3.999296 -0.26401,1.057837 -1.41343,2.78406 -2.3308,3.670719 -7.53442,5.33113 -15.06085,9.1085 -22.99177,13.83433 -1.36745,0.72753 -2.50473,0.45264 -3.67103,0.0709 -5.78555,-5.55009 -11.57115,-11.10015 -17.35667,-16.650231 1.31397,-4.175254 2.62796,-8.350475 3.94198,-12.525724 0.41011,-0.992567 0.92356,-1.907305 2.43419,-2.462168 z"
       id="path55" />
    <path
       style="fill:#333949;fill-opacity:1;stroke:none;stroke-width:0.264581px;stroke-linecap:butt;stroke-linejoin:miter;stroke-opacity:1"
       d="M 72.208222,87.320534 C 90.136411,80.17807 108.12553,75.064655 126.17245,71.875335 c 8.0782,-1.093934 9.59639,-0.686872 15.45174,2.623864 8.72227,6.446899 17.44453,12.893798 26.16682,19.340698 2.03204,2.158444 0.971,6.109378 1.45652,9.164103 -0.16805,2.52354 -2.08327,6.93676 -3.81341,9.33789 -15.0115,15.26628 -30.64295,26.98199 -46.80828,41.02922 -2.82309,2.22272 -5.53246,2.06233 -8.35197,1.67001 -15.488605,-10.29444 -30.977256,-20.58882 -46.465856,-30.88327 1.284745,-10.07207 2.569516,-20.14407 3.854261,-30.216133 0.528681,-2.434546 1.325072,-4.733854 4.545947,-6.621183 z"
       id="path56" />
    <path
       style="fill:#333949;fill-opacity:1;stroke:none;stroke-width:0.264581px;stroke-linecap:butt;stroke-linejoin:miter;stroke-opacity:1"
       d="m 70.522264,95.11973 c -6.125701,4.083535 -12.251327,8.16707 -18.377028,12.2506 -1.49094,1.21756 -2.456546,3.20051 -2.910429,4.74227 -1.247992,4.51689 -2.496036,9.03385 -3.744029,13.55074 -0.283578,1.69573 0.03574,3.39139 1.365069,5.08712 6.691794,6.01597 15.516786,13.25569 44.389328,31.9953 2.631641,0.6598 4.606525,0.71966 6.229724,0.0913 5.762811,-3.60096 11.238401,-7.47516 16.496961,-11.55584 2.36137,-6.48972 5.52367,-12.36988 7.08409,-19.46917 0.26436,-2.57619 0.5287,-5.15232 0.79269,-7.72851 -14.93653,-10.24365 -29.873051,-20.48729 -44.809576,-30.730933 -2.172283,0.589256 -4.344542,1.178155 -6.5168,1.767198 z"
       id="path57" />
    <path
       style="fill:#ffffff;fill-opacity:1;stroke:none;stroke-width:0.264581px;stroke-linecap:butt;stroke-linejoin:miter;stroke-opacity:1"
       d="m 98.445904,143.42497 c -17.258836,-7.81632 -50.157312,-26.43115 -46.465903,-36.05464 -1.494489,1.22044 -2.462376,3.20809 -2.917323,4.7535 -1.250958,4.52759 -2.501967,9.05526 -3.752925,13.58286 -0.284238,1.69975 0.03574,3.39943 1.368313,5.09918 6.70766,6.03022 15.553564,13.2871 44.494541,32.07112 2.637877,0.66136 4.617424,0.72137 6.244476,0.0915 5.776477,-3.60949 11.265037,-7.49287 16.536077,-11.58323 2.36697,-6.5051 5.53675,-12.3992 7.10086,-19.51531 0.265,-2.5823 0.52997,-5.16453 0.79457,-7.74682 -3.4965,5.16524 -9.7104,10.97841 -19.05858,17.53887 -1.56812,0.97468 -2.902161,1.8603 -4.344106,1.76303 z"
       id="path58" />
    <path
       style="fill:#b8bed1;fill-opacity:1;stroke:none;stroke-width:0.264581px;stroke-linecap:butt;stroke-linejoin:miter;stroke-opacity:1"
       d="m 91.245175,162.74576 c 2.631641,0.6598 4.606525,0.71966 6.229724,0.0913 5.762811,-3.60096 11.238401,-7.47516 16.496961,-11.55584 2.36137,-6.48972 5.52367,-12.36988 7.08409,-19.46917 0.26436,-2.57619 0.5287,-5.15232 0.79269,-7.72851 -3.48823,5.15303 -9.68744,10.95246 -19.01351,17.4974 -2.840673,9.06692 -7.10882,18.66929 -11.589955,21.16489 z"
       id="path59" />
    <path
       id="path60"
       style="fill:#4c5871;fill-opacity:1;stroke:none;stroke-width:0.264581px;stroke-linecap:butt;stroke-linejoin:miter;stroke-opacity:1"
       d="m 77.040129,93.353885 c -2.172258,0.589256 -4.345024,1.17837 -6.517307,1.767411 -6.125676,4.083535 -12.251454,8.166644 -18.377155,12.250174 -1.119663,2.91906 1.148583,6.6665 5.313215,10.68905 8.921842,-6.09 18.976729,-12.11587 29.165599,-18.134118 z M 50.300963,109.62126 c -0.233696,0.40472 -0.433934,0.81962 -0.607787,1.22611 0.173878,-0.40756 0.373356,-0.82047 0.607787,-1.22611 z m -0.644134,1.31446 c -0.170329,0.40757 -0.313513,0.80522 -0.423238,1.1783 0.109751,-0.37193 0.254379,-0.7723 0.423238,-1.1783 z" />
    <path
       style="fill:#677999;fill-opacity:1;stroke:none;stroke-width:0.264581px;stroke-linecap:butt;stroke-linejoin:miter;stroke-opacity:1"
       d="M 72.208222,87.320534 C 90.136411,80.17807 108.12553,75.064655 126.17245,71.875335 c 8.0782,-1.093934 9.59639,-0.686872 15.45174,2.623864 l 26.16682,19.340698 c 0.35695,2.62778 0.0152,4.815581 -0.78821,5.628853 -16.27807,15.0769 -34.43425,25.16614 -45.7112,32.60444 -0.33775,-2.19265 -0.66551,-1.86332 -2.01674,-3.64847 -2.96031,-3.15911 -42.835675,-30.382583 -51.612585,-34.483003 0.528681,-2.434546 1.325072,-4.733854 4.545947,-6.621183 z"
       id="path61" />
    <path
       id="path62"
       style="fill:#4c5871;fill-opacity:1;stroke:none;stroke-width:0.264999;stroke-linecap:round;stroke-linejoin:round;stroke-miterlimit:4;stroke-dasharray:none;stroke-opacity:1;paint-order:markers fill stroke"
       d="m 112.53512,74.660084 c -2.15267,0.498054 -4.30726,1.022256 -6.4583,1.575888 1.31376,0.977293 3.06413,1.136614 4.53263,0.412549 0.84073,-0.436064 1.5167,-1.134049 1.92567,-1.988292 z m 19.72853,1.296078 c -0.76531,-0.03561 -1.52736,0.125416 -2.20924,0.475252 -2.14569,1.100065 -2.99181,3.732335 -1.8889,5.876598 1.09999,2.143553 3.72955,2.989315 5.87289,1.888898 2.14141,-1.099923 2.98682,-3.726776 1.88888,-5.869189 -0.70965,-1.388421 -2.10636,-2.292538 -3.66363,-2.371272 z m -35.240986,2.794656 c -2.695337,0.793677 -5.389508,1.635593 -8.082133,2.518551 0.02028,0.491639 0.126226,0.975727 0.309229,1.432311 1.099918,2.141414 3.726768,2.986821 5.869194,1.888896 2.129853,-1.094078 2.979548,-3.700626 1.903634,-5.839758 z m 57.211816,5.066531 c -0.25438,0.02849 -0.50589,0.0862 -0.75115,0.161737 -2.14354,1.099991 -2.98931,3.729553 -1.88888,5.872891 1.09862,2.144904 3.72854,2.992379 5.87289,1.89253 1.42347,-0.734825 2.32951,-2.190792 2.36016,-3.792469 z m -75.154555,0.868992 c -1.746307,0.644831 -3.490714,1.319875 -5.235882,2.003041 -0.657669,1.227888 -0.689023,2.695897 -0.08491,3.950863 1.098651,2.144904 3.728568,2.992379 5.872894,1.89253 2.143566,-1.099991 2.989333,-3.729554 1.888908,-5.872891 -0.540796,-0.938037 -1.410794,-1.641439 -2.441237,-1.973543 z m 61.125925,6.760264 c -0.76532,-0.03561 -1.52737,0.125416 -2.20924,0.475253 -2.14357,1.099993 -2.98934,3.729556 -1.88891,5.872893 1.09857,2.142768 3.72578,2.989959 5.86919,1.892602 2.14499,-1.098638 2.99245,-3.728558 1.89261,-5.872894 -0.71039,-1.386994 -2.10714,-2.289545 -3.66365,-2.367567 z m -38.91937,0.394027 c -0.76413,-0.03564 -1.524731,0.126125 -2.205567,0.475252 -2.14496,1.098637 -2.992425,3.728555 -1.892583,5.872891 1.098625,2.144975 3.72854,2.992455 5.87289,1.892605 2.14496,-1.098641 2.99245,-3.728561 1.89259,-5.872895 -0.71108,-1.388137 -2.10948,-2.29083 -3.66733,-2.367569 z m 62.34831,7.150585 c -0.76532,-0.03561 -1.52736,0.125415 -2.20926,0.475252 -2.14567,1.100061 -2.9918,3.732331 -1.88889,5.876601 0.0983,0.12113 0.20227,0.23656 0.31281,0.34628 2.14141,-1.76114 4.27113,-3.59553 6.37356,-5.5157 -0.70681,-0.672623 -1.61777,-1.088379 -2.58845,-1.181934 z m -38.91939,0.394024 c -0.7641,-0.03561 -1.52473,0.126125 -2.20554,0.475254 -2.14712,1.098705 -2.99501,3.731405 -1.89261,5.876595 1.09999,2.14355 3.72955,2.98931 5.87289,1.8889 2.14278,-1.09857 2.98997,-3.72578 1.89261,-5.86919 -0.71039,-1.38956 -2.10871,-2.293821 -3.66735,-2.371273 z m -38.915673,0.394026 c -0.765393,-0.03564 -1.527364,0.125415 -2.209239,0.475253 -0.839152,0.4781 -1.495731,1.22176 -1.866806,2.11348 2.302717,1.47941 4.647054,3.003 7.128491,4.64308 1.18014,-1.34196 1.422327,-3.26798 0.611335,-4.86032 -0.709655,-1.38843 -2.106356,-2.292546 -3.663629,-2.37128 z m 62.344613,7.154293 c -0.7641,-0.0356 -1.52473,0.12612 -2.20554,0.47525 -2.14356,1.09999 -2.98931,3.72955 -1.88891,5.87289 0.6192,1.09501 1.68079,1.86945 2.91251,2.12453 1.75873,-1.22825 3.52344,-2.47894 5.30951,-3.80359 0.057,-0.79474 -0.0999,-1.59063 -0.46029,-2.30123 -0.7111,-1.38813 -2.1095,-2.29083 -3.66736,-2.36757 z m -38.91567,0.39402 c -0.76532,-0.0356 -1.52736,0.12542 -2.20926,0.47525 -2.14354,1.1 -2.98931,3.72956 -1.88889,5.8729 1.09863,2.14497 3.72857,2.99245 5.8729,1.8926 2.14354,-1.09999 2.98931,-3.72956 1.88888,-5.87289 -0.71036,-1.387 -2.10714,-2.28955 -3.66363,-2.36757 z m 23.42892,7.54825 c -0.76532,-0.0356 -1.52736,0.12541 -2.20924,0.47525 -2.14354,1.09999 -2.98931,3.72955 -1.88888,5.87289 1.09862,2.14498 3.72854,2.99245 5.87289,1.8926 2.14354,-1.09999 2.98931,-3.72955 1.88888,-5.87289 -0.71039,-1.38699 -2.10714,-2.28955 -3.66365,-2.36757 z m -15.48672,7.93849 c -0.76532,-0.0356 -1.52737,0.12542 -2.20924,0.47525 -0.40545,0.26079 -0.76512,0.58641 -1.06408,0.96476 2.69354,1.9672 4.82184,3.58056 5.37574,4.17174 0.52443,0.69257 0.86501,1.05026 1.14146,1.3771 1.01407,-1.33114 1.1771,-3.12513 0.41969,-4.61729 -0.70968,-1.38842 -2.10635,-2.29254 -3.66365,-2.37127 z" />
    <path
       style="fill:#ffffff;fill-opacity:1;stroke:none;stroke-width:0.264581px;stroke-linecap:butt;stroke-linejoin:miter;stroke-opacity:1"
       d="m 110.46995,82.867982 c 5.40413,4.541047 4.68127,8.992884 3.5904,13.835612 -1.09115,4.842936 -0.87291,6.917376 2.46405,11.085416 3.33509,4.16961 8.67679,5.32119 14.92448,1.96435 6.24747,-3.35697 8.16657,-9.64733 3.84889,-15.338956 -4.3178,-5.691483 -7.73706,-7.743048 -24.82818,-11.546348 z"
       id="path63" />
    <path
       style="fill:#b8bed1;fill-opacity:1;stroke:none;stroke-width:0.264581px;stroke-linecap:butt;stroke-linejoin:miter;stroke-opacity:1"
       d="m 110.46995,82.867982 c 5.40413,4.541047 4.68127,8.992884 3.5904,13.835612 -1.09115,4.842936 -0.87291,6.917376 2.46405,11.085416 3.33509,4.16961 6.03141,4.54269 9.23763,0.84912 6.63885,-7.64807 -10.44542,-23.869778 -15.29244,-25.770074 z"
       id="path64" />
    <path
       id="path65"
       style="fill:#4c5871;fill-opacity:1;stroke:none;stroke-width:0.264581px;stroke-linecap:butt;stroke-linejoin:miter;stroke-opacity:1"
       d="m 134.71128,66.793165 c -1.19538,-0.06413 -2.62698,0.0839 -4.68564,0.390138 -8.17903,1.587797 -16.34027,3.830707 -24.48374,6.719401 7.90085,-2.136748 15.81537,-3.857075 23.74405,-5.143197 6.56996,-0.816626 7.80464,-0.512963 12.56677,1.958523 l 3.73495,2.534441 -5.06124,-4.109667 c -2.48696,-1.544678 -3.82291,-2.242765 -5.81515,-2.349639 z" />
    <path
       id="path66"
       style="fill:#ffffff;fill-opacity:1;stroke:none;stroke-width:0.264581px;stroke-linecap:butt;stroke-linejoin:miter;stroke-opacity:1"
       d="m 105.73651,140.07104 c -0.51874,0.50615 -1.04935,1.01676 -1.60368,1.53419 -1.75305,7.44218 -6.368777,17.56844 -9.134146,19.61685 1.110056,0.37018 3.437993,-3.13301 3.970957,-3.76677 2.695189,-3.20474 5.242499,-9.60526 6.766869,-17.38427 z" />
    <path
       id="path67"
       style="fill:#ffffff;fill-opacity:1;stroke:none;stroke-width:0.264581px;stroke-linecap:butt;stroke-linejoin:miter;stroke-opacity:1"
       d="m 107.72229,138.46159 c -0.28413,0.3958 -0.57476,0.79508 -0.87838,1.1997 -0.96019,5.81959 -3.48834,13.73808 -5.00298,15.33988 0.60799,0.28947 1.88306,-2.44994 2.17498,-2.94552 1.47621,-2.50602 2.87144,-7.51107 3.70638,-13.59406 z" />
    <path
       id="path68"
       style="fill:#ffffff;fill-opacity:1;stroke:none;stroke-width:0.264581px;stroke-linecap:butt;stroke-linejoin:miter;stroke-opacity:1"
       d="m 67.71231,93.733844 c -0.01521,0.06973 -0.03447,0.138316 -0.04968,0.208273 8.776885,4.100416 48.652,31.323333 51.61231,34.482433 1.35123,1.78515 1.67937,1.45653 2.01711,3.64917 0.77183,-0.5091 1.64865,-1.0633 2.48212,-1.59799 -0.14904,-0.1705 -0.26604,-0.28823 -0.44663,-0.51476 C 120.09939,126.65844 77.6851,98.471256 67.712386,93.733854 Z" />
    <path
       style="fill:#677999;fill-opacity:1;stroke:none;stroke-width:0.264581px;stroke-linecap:butt;stroke-linejoin:miter;stroke-opacity:1"
       d="m 32.314375,105.18438 c -3.453278,-2.34379 -7.014,-4.26194 -10.676565,-5.776431 -1.654984,-0.607463 -1.994578,-0.592242 -3.385399,-0.165919 -2.1424,0.95502 -4.2848,1.91004 -6.427225,2.86506 -0.52972,0.36113 -0.489698,1.24496 -0.734622,1.86742 -0.08212,0.54077 0.116594,1.562 0.370188,2.1497 2.458751,3.92349 5.213881,7.12605 7.973142,10.84587 0.492587,0.60095 1.072239,0.69333 1.685983,0.74187 3.750619,-1.45225 7.501264,-2.90448 11.251883,-4.35673 0.197957,-2.18691 0.396067,-4.37381 0.5941,-6.56072 0.0013,-0.53876 -0.05931,-1.06145 -0.651485,-1.61011 z"
       id="path69" />
  </g>
</svg>
